<svg xmlns="http://www.w3.org/2000/svg" viewBox="0 0 59.36 59.36"><defs><style>.cls-1{fill:#6aa4a9;}.cls-2{fill:#fff;}</style></defs><g id="Capa_2" data-name="Capa 2"><g id="Capa_1-2" data-name="Capa 1"><circle class="cls-1" cx="29.68" cy="29.68" r="29.68"/><path class="cls-2" d="M37,32.83c-.32-.15-2.35-1.09-2.67-1.25a.73.73,0,0,0-.94.16c-.31.31-.93,1.25-1.25,1.56-.15.31-.47.31-.78.16a12.83,12.83,0,0,1-3.13-1.88A17.61,17.61,0,0,1,26,28.92a.69.69,0,0,1,.15-.78c.16-.16.32-.47.63-.63a1.17,1.17,0,0,0,.31-.63.46.46,0,0,0,0-.62,29.52,29.52,0,0,1-1.25-2.82c-.16-1.1-.47-1.1-.78-1.1h-.78a1.78,1.78,0,0,0-.94.47,4.51,4.51,0,0,0-1.41,3.29,8.11,8.11,0,0,0,1.56,4.07A16.7,16.7,0,0,0,30.07,36a11.28,11.28,0,0,0,2.19.78,4.36,4.36,0,0,0,2.5.16A4,4,0,0,0,37.42,35a2.57,2.57,0,0,0,.16-1.88L37,32.83m3.91-14.24A15.6,15.6,0,0,0,16.29,37.37l-2.19,8,8.3-2.19A15.48,15.48,0,0,0,29.75,45h0a15.44,15.44,0,0,0,15.5-15.5,15.2,15.2,0,0,0-4.38-10.95M36.64,40.5a13.14,13.14,0,0,1-6.89,2h0a13.71,13.71,0,0,1-6.57-1.73l-.47-.31-4.85,1.25,1.25-4.69-.31-.47a13.14,13.14,0,0,1,4.22-18,12.73,12.73,0,0,1,17.69,4.07A12.91,12.91,0,0,1,36.64,40.5"/></g></g></svg>