<svg xmlns="http://www.w3.org/2000/svg" viewBox="0 0 59.36 59.36"><defs><style>.cls-1{fill:#6aa4a9;}.cls-2{fill:#fff;}</style></defs><g id="Capa_2" data-name="Capa 2"><g id="Capa_1-2" data-name="Capa 1"><circle class="cls-1" cx="29.68" cy="29.68" r="29.68"/><path class="cls-2" d="M40.18,15.48a7,7,0,0,0-9.88,0l-7.41,7.41a7,7,0,0,0,9.88,9.88l.88-.88a5.49,5.49,0,0,0-.88-1.59,5.49,5.49,0,0,0-1.59-.88l-.88.88a3.49,3.49,0,0,1-4.94-4.94L32.77,18a3.49,3.49,0,0,1,4.94,4.94l-1.23,1.23a10.65,10.65,0,0,1,1.39,1.1A10.12,10.12,0,0,1,39,26.59l1.23-1.23A7,7,0,0,0,40.18,15.48Z"/><path class="cls-2" d="M36.48,26.59a7,7,0,0,0-9.89,0l-.94.95a6.5,6.5,0,0,0,1,1.53,6.34,6.34,0,0,0,1.52.94l.94-1A3.49,3.49,0,0,1,34,34l-7.41,7.42a3.49,3.49,0,1,1-4.94-4.94L23,35.11A12.37,12.37,0,0,1,21.65,34a13.79,13.79,0,0,1-1.11-1.36L19.18,34a7,7,0,1,0,9.88,9.89l7.42-7.41A7,7,0,0,0,36.48,26.59Z"/></g></g></svg>