<svg xmlns="http://www.w3.org/2000/svg" viewBox="0 0 42 42"><defs><style>.cls-1{fill:#59939a;}.cls-2{fill:#fff;fill-rule:evenodd;}</style></defs><g id="Capa_2" data-name="Capa 2"><g id="Capa_1-2" data-name="Capa 1"><circle class="cls-1" cx="21" cy="21" r="21"/><path class="cls-2" d="M15.52,33.26a1.35,1.35,0,0,0,1.85,0L28.18,22.82a2.47,2.47,0,0,0,.09-3.48l-.09-.09L17.29,8.74a1.36,1.36,0,0,0-1.84,0,1.23,1.23,0,0,0-.07,1.74l.06.06,10,9.62a1.23,1.23,0,0,1,0,1.74l0,0-9.89,9.54a1.24,1.24,0,0,0,0,1.74l0,0"/></g></g></svg>