<svg xmlns="http://www.w3.org/2000/svg" viewBox="0 0 59.36 59.36"><defs><style>.cls-1{fill:#6aa4a9;}.cls-2,.cls-3{fill:#fff;}.cls-2{fill-opacity:0;}</style></defs><g id="Capa_2" data-name="Capa 2"><g id="Capa_1-2" data-name="Capa 1"><circle class="cls-1" cx="29.68" cy="29.68" r="29.68"/><rect class="cls-2" x="10.52" y="10.52" width="38.32" height="38.32"/><path class="cls-3" d="M40.86,16.91H18.5a4.79,4.79,0,0,0-4.79,4.79v16a4.79,4.79,0,0,0,4.79,4.79H40.86a4.79,4.79,0,0,0,4.79-4.79v-16A4.79,4.79,0,0,0,40.86,16.91ZM39.79,20.1,29.68,27.69,19.57,20.1Zm1.07,19.16H18.5a1.59,1.59,0,0,1-1.59-1.6V22.1L28.72,31a1.61,1.61,0,0,0,1,.32,1.58,1.58,0,0,0,1-.32L42.45,22.1V37.66A1.59,1.59,0,0,1,40.86,39.26Z"/></g></g></svg>