<?xml version="1.0" encoding="utf-8"?>
<!-- Generator: Adobe Illustrator 24.1.2, SVG Export Plug-In . SVG Version: 6.00 Build 0)  -->
<svg version="1.1" id="Capa_1" xmlns="http://www.w3.org/2000/svg" xmlns:xlink="http://www.w3.org/1999/xlink" x="0px" y="0px"
	 viewBox="0 0 56.2 56.2" style="enable-background:new 0 0 56.2 56.2;" xml:space="preserve">
<style type="text/css">
	.st0{fill:#FFFFFF;}
</style>
<g id="Capa_2_1_">
	<g id="Capa_1-2">
		<path class="st0" d="M33.6,28.1L55.1,6.6c1.5-1.5,1.5-4,0-5.5s-4-1.5-5.5,0L28.1,22.6L6.6,1.1c-1.5-1.5-4-1.5-5.5,0s-1.5,4,0,5.5
			l21.5,21.5L1.1,49.6c-1.5,1.5-1.5,4,0,5.5s4,1.5,5.5,0l21.5-21.5l21.5,21.5c1.5,1.5,4,1.5,5.5,0c1.5-1.5,1.5-4,0-5.5l0,0
			L33.6,28.1z"/>
	</g>
</g>
</svg>
