<?xml version="1.0" encoding="utf-8"?>
<!-- Generator: Adobe Illustrator 24.1.2, SVG Export Plug-In . SVG Version: 6.00 Build 0)  -->
<svg version="1.1" id="Capa_1" xmlns="http://www.w3.org/2000/svg" xmlns:xlink="http://www.w3.org/1999/xlink" x="0px" y="0px"
	 viewBox="0 0 100.8 100.8" style="enable-background:new 0 0 100.8 100.8;" xml:space="preserve">
<style type="text/css">
	.st0{fill:#29205E;}
	.st1{fill:#FFFFFF;}
	.st2{clip-path:url(#SVGID_2_);}
	.st3{clip-path:url(#SVGID_4_);}
	.st4{fill:url(#SVGID_5_);}
	.st5{fill:url(#SVGID_6_);}
	.st6{fill:url(#SVGID_7_);}
	.st7{fill:url(#SVGID_8_);stroke:#FFFFFF;stroke-width:9;stroke-miterlimit:10;}
</style>
<g id="Capa_2_1_">
	<g id="Capa_1-2">
		<path class="st0" d="M26.8,51.4c0,13.4,10.9,24.3,24.3,24.3s24.3-10.9,24.3-24.3c0-13.4-10.9-24.3-24.3-24.3c0,0,0,0,0,0
			C37.7,27.1,26.8,38,26.8,51.4"/>
		<path class="st1" d="M42.1,45.2c0-4.9,4-8.9,8.9-8.9s8.9,4,8.9,8.9s-4,8.9-8.9,8.9C46.1,54.1,42.1,50.1,42.1,45.2
			C42.1,45.2,42.1,45.2,42.1,45.2"/>
		<path class="st1" d="M37.3,67.9c0-7.6,6.2-13.8,13.8-13.8s13.8,6.2,13.8,13.8s-6.2,13.8-13.8,13.8S37.3,75.5,37.3,67.9"/>
		<g>
			<defs>
				<path id="SVGID_1_" d="M103.4,69.5C98.3,66.7,4.1,29.4,4.1,29.4l17.1-35l69.2,4.6L103.4,69.5z"/>
			</defs>
			<clipPath id="SVGID_2_">
				<use xlink:href="#SVGID_1_"  style="overflow:visible;"/>
			</clipPath>
			<g class="st2">
				<g>
					<defs>
						<path id="SVGID_3_" d="M17,51.4c0-18.8,15.3-34.1,34.1-34.1c18.8,0,34.1,15.3,34.1,34.1S69.9,85.5,51.1,85.5c0,0,0,0,0,0
							C32.2,85.5,17,70.2,17,51.4 M7.6,51.4c0,24,19.4,43.4,43.4,43.4s43.4-19.4,43.4-43.4S75.1,7.9,51.1,7.9c0,0,0,0,0,0
							C27.1,7.9,7.6,27.4,7.6,51.4"/>
					</defs>
					<clipPath id="SVGID_4_">
						<use xlink:href="#SVGID_3_"  style="overflow:visible;"/>
					</clipPath>
					<g class="st3">
						
							<linearGradient id="SVGID_5_" gradientUnits="userSpaceOnUse" x1="486.4962" y1="3097.8801" x2="486.9787" y2="3097.8801" gradientTransform="matrix(-118.7515 -118.7515 118.7515 -118.7515 -310021 425735.1875)">
							<stop  offset="0" style="stop-color:#B3B3E1"/>
							<stop  offset="0" style="stop-color:#B3B3E1"/>
							<stop  offset="0.21" style="stop-color:#9E9ACA"/>
							<stop  offset="0.54" style="stop-color:#7F77A9"/>
							<stop  offset="0.82" style="stop-color:#6D6294"/>
							<stop  offset="1" style="stop-color:#665A8D"/>
						</linearGradient>
						<polygon class="st4" points="-35.8,51.4 51.1,-35.5 137.9,51.4 51.1,138.2 						"/>
					</g>
				</g>
			</g>
		</g>
		
			<linearGradient id="SVGID_6_" gradientUnits="userSpaceOnUse" x1="-14.3563" y1="48.5842" x2="63.8497" y2="48.5842" gradientTransform="matrix(1 0 0 -1 21.96 119.21)">
			<stop  offset="0.49" style="stop-color:#6BA6AC"/>
			<stop  offset="0.94" style="stop-color:#538185"/>
		</linearGradient>
		<path class="st5" d="M50.8,94.9c-1.9,0-3.8-0.1-5.7-0.4C21.5,91.5,4.9,69.9,8,46.3l9.7,1.3c-2.3,18.3,10.5,35,28.8,37.3
			c12.2,1.6,24.3-3.7,31.4-13.7l8,5.7C77.7,88.2,64.7,94.9,50.8,94.9z"/>
		
			<linearGradient id="SVGID_7_" gradientUnits="userSpaceOnUse" x1="-17.8201" y1="83.0264" x2="2.9075" y2="83.0264" gradientTransform="matrix(1 0 0 -1 21.96 119.21)">
			<stop  offset="0.49" style="stop-color:#6BA6AC"/>
			<stop  offset="0.94" style="stop-color:#538185"/>
		</linearGradient>
		<path class="st6" d="M21.8,28.9c4,4,4,10.6,0,14.6s-10.6,4-14.6,0c-4-4-4-10.5,0-14.6C11.2,24.8,17.7,24.8,21.8,28.9
			C21.8,28.9,21.8,28.9,21.8,28.9z"/>
		<path class="st1" d="M14.5,48.7C7.6,48.7,2,43.1,2,36.3c0-6.9,5.6-12.5,12.5-12.5S27,29.3,27,36.2c0,3.3-1.3,6.5-3.7,8.8
			C21,47.4,17.8,48.7,14.5,48.7z M14.5,28c-4.6,0-8.3,3.7-8.3,8.3s3.7,8.3,8.3,8.3c4.6,0,8.3-3.7,8.3-8.3c0-2.2-0.9-4.3-2.4-5.9
			C18.8,28.9,16.7,28,14.5,28L14.5,28z"/>
		
			<linearGradient id="SVGID_8_" gradientUnits="userSpaceOnUse" x1="55.9928" y1="55.5534" x2="76.7376" y2="55.5534" gradientTransform="matrix(1 0 0 -1 21.96 119.21)">
			<stop  offset="0" style="stop-color:#B3B3E1"/>
			<stop  offset="0" style="stop-color:#B3B3E1"/>
			<stop  offset="0.21" style="stop-color:#9E9ACA"/>
			<stop  offset="0.54" style="stop-color:#7F77A9"/>
			<stop  offset="0.82" style="stop-color:#6D6294"/>
			<stop  offset="1" style="stop-color:#665A8D"/>
		</linearGradient>
		<path class="st7" d="M95.7,56.4c4,4.1,4,10.6-0.1,14.6C91.6,75,85,75,81,70.9c-4-4-4-10.5,0-14.6C85,52.3,91.6,52.3,95.7,56.4
			C95.6,56.3,95.6,56.4,95.7,56.4z"/>
	</g>
</g>
</svg>
