<?xml version="1.0" encoding="utf-8"?>
<!-- Generator: Adobe Illustrator 24.1.2, SVG Export Plug-In . SVG Version: 6.00 Build 0)  -->
<svg version="1.1" id="Capa_1" xmlns="http://www.w3.org/2000/svg" xmlns:xlink="http://www.w3.org/1999/xlink" x="0px" y="0px"
	 viewBox="0 0 69.7 69.7" style="enable-background:new 0 0 69.7 69.7;" xml:space="preserve">
<style type="text/css">
	.st0{fill:#23757D;}
	.st1{fill:#B8D5C6;}
	.st2{fill:#25767E;}
	.st3{fill:#79A4A5;}
	.st4{fill:#297981;}
	.st5{fill:#8BB2AF;}
	.st6{fill:#7DA7A7;}
	.st7{fill:#B4D1C4;}
	.st8{fill:#95BAB4;}
	.st9{fill:#A8C8BE;}
	.st10{fill:#84ACAB;}
	.st11{fill:#8FB5B0;}
	.st12{fill:#87AFAC;}
	.st13{fill:#81AAA9;}
	.st14{fill:#ADCCC1;}
	.st15{fill:#B5D2C5;}
	.st16{fill:#C1DCCE;}
	.st17{fill:#699FA5;}
	.st18{fill:#B2D0C3;}
	.st19{fill:#AACAC0;}
	.st20{fill:#A0C2BA;}
	.st21{fill:#3D878F;}
	.st22{fill:#8FB5B2;}
	.st23{fill:#C4DED1;}
	.st24{fill:#C7E0D3;}
	.st25{fill:#81AAAA;}
	.st26{fill:#C6E0D2;}
	.st27{fill:#C4DDD2;}
	.st28{fill:#FEFEFE;}
	.st29{fill:#B7D4C5;}
	.st30{fill:#A2C4BB;}
	.st31{fill:#B5D3C4;}
	.st32{fill:#84ADAB;}
	.st33{fill:#B0CFC2;}
	.st34{fill:#9ABEB7;}
	.st35{fill:#A3C4BB;}
	.st36{fill:#AACABF;}
	.st37{fill:#9BBEB6;}
	.st38{fill:#A1C3BB;}
	.st39{fill:#ACCBC2;}
	.st40{fill:#93B8B3;}
	.st41{fill:#8AB1AE;}
	.st42{fill:#9CBFB7;}
	.st43{fill:#97BBB5;}
	.st44{fill:#FDFEFE;}
	.st45{fill:#9FC1B9;}
	.st46{fill:#92B8B3;}
	.st47{fill:#85ADAB;}
</style>
<g id="Capa_2_1_">
	<g id="Capa_1-2">
		<path class="st0" d="M32.1,38.2c-0.8,0.1-1.8,0.2-1.8,1.3s1,1.3,1.9,1.4c7.4,0.9,14.6,0.6,20.9-4c0.6-0.4,1.3-0.9,2-0.3
			s0.2,1.4-0.1,2c-1.5,2.5-3.7,4.4-6.4,5.6c-4.6,2.2-9.4,3.9-14.4,5.2c-6.8,1.9-12.7,6.2-16.5,12.1C17.3,62.1,17,63.1,16,63
			s-1-1.3-1.2-2.1c-1-3.7-1.4-7.5-1.1-11.3c0.3-4.7,3.1-8.9,7.4-10.9c2-1,4.1-1.8,6.2-2.6c0.2-0.3,0.5-0.5,0.8-0.7
			c1.4-0.6,2.8-1,4.3-1.6c1.3-0.5,2.5-1.1,3.6-1.9c1.9-0.4,2-0.3,2.2,1.7c-0.2,0.9-0.6,1.7-1.3,2.3C35.7,37.1,34,37.9,32.1,38.2z"/>
		<path class="st1" d="M22,20.5v-0.7c0.3-0.3,0.4-0.7,0.3-1.1C23.5,13.4,29.2,8,34.4,7.4c0.4,0.1,0.9,0,1.2-0.3
			c1.6-0.2,3.2-0.2,4.9,0c0.2,0.2,0.2,0.5,0.1,0.8c-0.1,0.1-0.3,0.2-0.4,0.3c-0.6,0.2-1.5,0.1-2,0.7c0.3,0.6,0.9,0.3,1.3,0.4
			c0.3,0,0.5,0.2,0.7,0.4c0.1,0.4-0.1,0.8-0.5,1c-0.6,0.2-1.2,0.3-1.8,0.3c-7.1-0.1-12.8,6.6-12,13.5c0.1,0.4,0,0.9-0.1,1.3
			c-0.3,0.4-1,0.9-1.1,0.3c-0.3-1.5-1.6-1.3-2.4-1.9C22,22.9,22,21.7,22,20.5z"/>
		<path class="st2" d="M36.3,50.6c2.2-0.7,4.4-1.4,6.6-2c4.2-1.1,8.1-3.3,11.3-6.3c0.4-0.3,0.7-1,1.4-0.6s0.2,1,0,1.5
			c-1.5,4.1-4.8,6.1-8.7,7.1c-1.3,0.3-2.6,0.4-3.8,0.5C41,51,38.9,51,36.8,50.9C36.6,50.9,36.4,50.8,36.3,50.6
			C36.3,50.7,36.3,50.6,36.3,50.6z"/>
		<path class="st3" d="M50.6,33.3c-1,1.4-2.3,2.6-3.8,3.4c-0.8,0.3-1.6,0.6-2.4,1c-0.3,0.1-0.7,0.3-1,0s-0.1-0.8,0.1-1.2
			c0.6-0.7,1.2-1.4,1.9-2c0.6-0.5,1-1.1,1.3-1.8c0.2-0.4,0.5-0.7,1-0.9c1.4-0.6,2.2-1.8,3.2-2.7c0.4-0.4,0.8-1,1.4-0.6
			s0.3,1.1,0.1,1.7C51.9,31.3,51,32.2,50.6,33.3z"/>
		<path class="st4" d="M44.4,52.8c-0.2-0.1-0.9,0.1-0.4-0.3c0.5-0.3,1.1-0.4,1.8-0.4c2.9-0.5,5.6-1.7,7.8-3.6
			c0.3-0.3,0.7-0.9,1.2-0.5s0.1,0.9-0.2,1.3c-1.2,2-3.3,3.3-5.6,3.5C47.5,53,46,53,44.4,52.8z"/>
		<path class="st5" d="M32.1,38.2c1.5-0.9,3.3-1.3,4.4-2.7c0.8-0.2,1.7-0.1,2.5,0.1c0.6,0.4,1,1,0.1,1.3c-1.5,0.5-1.2,1.4-0.7,2.4
			C36.3,39.6,34.1,39.2,32.1,38.2z"/>
		<path class="st6" d="M50.6,33.3c-0.5-0.8,0.4-1.2,0.6-1.7c0.5-0.9,1.2-1.7,1.1-3c-1.8,0.9-2.5,3.1-4.4,3.6c0.3-1.8,1.6-3,2.6-4.4
			c0.3-0.3,0.6-0.6,0.9-0.9c1.2-1.1,1.7-0.9,2.2,0.8C53.1,29.8,52,31.8,50.6,33.3z"/>
		<path class="st6" d="M47.1,32.9c-0.6,2-2.8,2.7-3.7,4.6c1.3,0.3,2.1-1.3,3.4-0.8c-1.1,0.9-2.4,1.5-3.8,1.8
			c-0.4-0.1-0.8,0.1-1.1,0.3c-0.1,0-0.2,0.1-0.3,0c-0.3,0-0.7-0.2-0.9-0.5c0.1-1.3,1.5-1.8,2-2.9c0.2-0.3,0.4-0.6,0.6-0.8
			c0.1-0.1,0.3-0.2,0.4-0.2c0.6-0.1,1.1-0.4,1.5-0.8C45.8,33.5,46.2,32.6,47.1,32.9z"/>
		<path class="st7" d="M22.4,24.3c1.5-0.8,2.5-0.9,2.3,1.3c0,0.5,0.4,0.2,0.7,0.2c1,0.4,0.9,1.3,0.9,2.1c-0.1,0.3-0.3,0.5-0.5,0.6
			c-0.2,0-0.4,0-0.5-0.1c-0.4-0.3-0.4-1.3-1.1-1s-0.4,1-0.3,1.6c0.1,0.3,0.2,0.6,0.3,0.9c0,0.4,0.7,1.1-0.4,1.2
			c-0.8-1-1.3-2.1-1.5-3.4c0-0.3,0-0.6,0-1c0-0.5-0.1-1-0.3-1.5C22,24.9,22.2,24.5,22.4,24.3z"/>
		<path class="st8" d="M53.1,17.2l0.4,1.1c-1.3,0.5-2.1,1.1-1.8,2.7c0.1,0.5,0.2,1.5-0.9,1.4c-0.9-1-0.8-2.3-0.9-3.5
			c0.2-0.6-0.2-1.2,0-1.8c0.2-0.8,0.9-1.5,1.8-1.7C52.5,15.6,52.4,16.7,53.1,17.2z"/>
		<path class="st9" d="M48.3,10.7c1.5,0.7,2.4,2.1,3.3,3.5c-0.2,0.2-0.5,0.2-0.7,0.1c-0.6-0.4-1.2-0.9-1.7-1.5
			c-1.2-1.2-1.4,0.3-2.1,0.7c-2.3-1-2.5-2-0.9-3.6C47,9.7,47.6,10.6,48.3,10.7z"/>
		<path class="st10" d="M40.8,38.5c0.3,0,0.6,0.1,0.8,0.4c-0.9,0.4-2,0.5-3,0.4c-0.2-0.7-1.6-0.1-1.4-1.1c0.1-0.8,0.8-1.4,1.6-1.5
			c0.5-0.1,0.8-0.2,0.5-0.8c0.2-0.2,0.4-0.3,0.7-0.3c0.3,0.1,0.7,0.3,0.9,0.5C41.2,37,40,37.7,40.8,38.5z"/>
		<path class="st11" d="M50.8,22.4c0.7-0.6,0.4-1.4,0.3-2c-0.1-1.7,0.4-2.2,2.3-2.1c0,0.1,0.1,0.2,0.1,0.4c-0.1,0.4,0,0.8,0.3,1.1
			c0,0.1,0,0.2,0,0.4c-0.1,0.3-0.2,0.5-0.4,0.6c-1.5,0.5-1.1,2.5-2.3,3.2c-0.2,0-0.4-0.1-0.5-0.3C50.4,23.4,50.4,22.8,50.8,22.4z"/>
		<path class="st12" d="M51.2,23.9c0.7-1.2,0-3.2,2.2-3.4c0.6,0.6,0.3,1.6,0.7,2.2v0.8c-0.4,0.6,0,1.3-0.3,1.9
			c-0.7,0.1-0.7-0.4-0.8-0.9c-0.2-0.2,0.3-1.1-0.6-0.5c-0.3,0.3-0.8,0.4-1.2,0.3c-0.1-0.1-0.1-0.2-0.1-0.3
			C51.2,24,51.2,23.9,51.2,23.9z"/>
		<path class="st13" d="M53.5,24.3c0,0.4-0.1,0.9,0.4,1.1c0.3,0.3,0,0.5,0,0.7c0.2,0.5,0,1.1-0.3,1.5c-0.6-1.2-1.3-1.6-2.1-0.1
			c-0.2,0.3-0.6,0.5-0.9,0.5c-0.3-0.8,0.2-1.4,0.4-2.1c0.1-0.1,0.2-0.3,0.3-0.4C51.8,24.9,52.3,24,53.5,24.3z"/>
		<path class="st14" d="M23.9,31c0.5-0.4-0.1-0.8,0-1.1c0-1,0.4-1.6,1.5-1.5h0.4c0.5,0.3,0.7,0.9,0.5,1.4c-0.9,0.7-1.1,2-0.4,2.9
			c0,0,0,0,0,0.1c0,0.2,0,0.4-0.1,0.5s-0.3,0.1-0.5,0C24.6,32.7,24.1,31.9,23.9,31z"/>
		<path class="st15" d="M40,9.7h-0.8c-0.6-0.9,0.3-1.3,0.8-1.9h0.4c0.3-0.3,0.7-0.5,1.2-0.4c1.2,0,2.4,0.4,3.4,1.1
			c0.1,0.1,0.1,0.2,0.1,0.3S45.1,9,45,9c-0.2,0.2-0.5,0.2-0.8,0.2c-1.3-0.5-2.6-0.9-3.6,0.6C40.4,9.8,40.2,9.8,40,9.7z"/>
		<path class="st16" d="M22.4,24.3v1.1c-0.1,0.1-0.2,0.4-0.4,0.4c-0.6-1.7-0.6-3.6,0-5.3C22.9,21.7,22.2,23,22.4,24.3z"/>
		<path class="st17" d="M36.3,50.6c2.2,0.8,4.5-0.1,6.7,0.3c-2.6,0.6-5.2,0.3-8,0.4C35.3,50.8,35.8,50.5,36.3,50.6z"/>
		<path class="st18" d="M44.9,8.9V8.5c1.3,0.4,2.5,1.1,3.4,2.2c-0.9,0.5-1.2-0.6-1.9-0.7C45.8,9.7,44.8,10.1,44.9,8.9z"/>
		<path class="st19" d="M25.4,33.3h0.4c1.3,0,2.3,1,2.3,2.3l-0.8,0.3C27,34.8,25.7,34.4,25.4,33.3z"/>
		<path class="st20" d="M50.8,14.2h0.7c0.6,1,1.4,1.8,1.5,3c-0.9-0.1-0.8-1.1-1.5-1.5c-0.4-0.3-0.8-0.7-0.8-1.3L50.8,14.2z"/>
		<path class="st21" d="M44.4,52.8H49C47.6,53.3,45.9,53.3,44.4,52.8z"/>
		<path class="st22" d="M54.2,22.8c-0.6-0.6-0.9-1.4-0.7-2.2l0.4-0.4C54.2,21,54.4,21.9,54.2,22.8z"/>
		<path class="st22" d="M53.8,26.1c-0.4-0.3,0-0.5,0-0.7c0.1-0.6-0.2-1.3,0.4-1.9C54.2,24.4,54.5,25.4,53.8,26.1z"/>
		<path class="st23" d="M41.6,7.4c-0.3,0.5-0.7,0.4-1.1,0.4c0-0.2,0-0.5,0-0.7C40.8,7.1,41.2,7,41.6,7.4z"/>
		<path class="st24" d="M22.4,18.7c0.6,0.6,0.5,1-0.3,1.1C22.1,19.4,22,18.9,22.4,18.7z"/>
		<path class="st8" d="M53.8,19.8c-0.8-0.2-1-0.5-0.3-1.1C53.8,19,53.9,19.4,53.8,19.8z"/>
		<path class="st1" d="M22,25.8l0.4-0.4c0.3,0.4,0.4,1,0.4,1.5c-0.4,0.2-0.5-0.2-0.7-0.4L22,25.8z"/>
		<path class="st25" d="M41.9,38.9c0.2-0.8,0.5-1,1.1-0.3C42.7,38.8,42.3,38.9,41.9,38.9z"/>
		<path class="st26" d="M35.6,7.1c-0.2,0.8-0.5,1-1.1,0.3C34.7,7,35.1,7.1,35.6,7.1z"/>
		<path class="st27" d="M22.1,26.5l0.7,0.4c0,0.3-0.1,0.6-0.4,0.8C22,27.4,22.1,26.9,22.1,26.5z"/>
		<path class="st28" d="M50.8,22.4v1.5c0.5,0.7,0,1.4,0,2.2c-0.9,3.1-2.7,5.8-5.3,7.7c-0.7,0.2-1,1-1.8,0.9c-0.1,0-0.2,0.1-0.3,0.1
			c-0.8,1-2.1,1.4-3.4,1.1h-0.8c-0.9-0.2-1.9,0.3-2.7-0.4l1.2-1.8c0.3-0.9,0.2-1.8,1.6-2c4-0.6,7-3.8,7.3-7.8s-2.1-7.4-6.3-8.9
			c-5.3-1.2-9.2,1.2-10.8,6.4c-0.4,1-0.4,2.1-0.1,3.2c0.1,0.5,0.2,1,0.4,1.5c0.4,1.1,1,2.2,1.9,3c0.9,1.1,2,1.9,3.3,2.3
			c0.4,0.1,1,0.2,0.9,0.9c-1,0.8-2.2,1.4-3.4,1.8c-0.9,0.4-1.9,0.2-2.6-0.4c-1-0.8-1.8-1.7-2.6-2.7c-0.7-0.8-1.1-1.8-1.2-2.9
			c-0.3-0.8-0.5-1.5-0.7-2.3c-0.6-3.2,0-6.5,1.7-9.3c2.9-4.6,7.2-6.4,12.5-6.1c0.5-0.4,1-0.1,1.6-0.1c0.8,0.2,1.6,0.5,2.3,0.8
			c2,1.2,3.8,2.7,5.3,4.4c0.6,1,1,2,1.3,3.1L50.8,22.4z"/>
		<path class="st29" d="M36,32.2c-1.7-0.8-3.5-1.3-4.6-3c0.1-0.2,0.3-0.3,0.5-0.4c1.1-0.4,2.3,0,3.4-0.3c0.7-0.1,1.3-0.4,1.9-0.8
			c1.3-0.7,2.4-1.8,3.3-3c0.6-0.8,1-1.8,1.1-2.8c0.2-1.1,0.2-2.3,0-3.4c-0.1-0.5-0.2-1-0.3-1.5c-0.3-0.6-0.6-1.1-1-1.6
			c-0.1-0.2-0.1-0.3-0.1-0.5s0.1-0.3,0.2-0.4c4.1,1,6.9,4.7,6.7,8.9c-0.1,4.2-3.1,7.9-7.3,8.7c-0.9,0.1-1.8,0.7-2.1,1.6
			C37.8,31.5,37.7,31.5,36,32.2z"/>
		<path class="st30" d="M29.9,33.2c0.7,0.6,1.7,0.9,2.6,0.8L28,35.5c-0.6-0.9-1.4-1.7-2.3-2.3v-0.3c0.4-0.6,1.1-1.1,1.9-1.3
			C28.7,31.8,29,33,29.9,33.2z"/>
		<path class="st31" d="M40,7.8l-0.8,1.9c-0.7-0.2-2,0.5-2-0.5s1.1-1.5,2.2-1.4C39.6,7.8,39.8,7.8,40,7.8z"/>
		<path class="st31" d="M41.1,10.8l-1.5-0.4L40,9.7h0.4c0.5,0,1,0,1.2,0.6C41.6,10.6,41.3,10.6,41.1,10.8z"/>
		<path class="st32" d="M45.2,33.7c2.5-1.9,4.3-4.5,5.2-7.5c0.2-0.2,0.3-0.6,0.8-0.4L50.5,28c-0.7,1.5-1.6,2.9-2.6,4.1
			c-0.3,0.1-0.6,0.4-0.8,0.8c-0.7,0.3-1,1.2-1.9,1.1C45.1,33.9,45,33.9,45.2,33.7C45.2,33.7,45.2,33.7,45.2,33.7z"/>
		<path class="st25" d="M40.8,38.5c-0.6,0-1.4,0.1-0.7-1c0.3-0.4,0.5-0.8,0.7-1.3c0.5-0.7,1.4-0.9,2.2-0.8
			C42.8,36.9,41.3,37.3,40.8,38.5z"/>
		<path class="st5" d="M43,35.5l-2.2,0.8c-0.3,0-0.6-0.1-0.8-0.4l3.4-1.1C43.4,35.1,43.3,35.4,43,35.5z"/>
		<path class="st5" d="M45.2,33.7V34c-0.4,0.5-0.7,1.1-1.5,0.6L45.2,33.7z"/>
		<path class="st33" d="M25.4,28.4c-0.6,0.4-1.1,0.9-1.5,1.5l-0.5-1c-0.5-1-0.3-2,0.7-2.3C25.4,26.4,25.3,27.6,25.4,28.4z"/>
		<path class="st33" d="M26.1,28l1.4,2.6c-0.2,0.2-0.4,0.2-0.7,0.2c-0.4-0.2-0.7-0.5-0.8-0.9l-0.4-1.5L26.1,28z"/>
		<path class="st20" d="M50.1,18.7l-1.5-2.9c-0.1-0.5-0.5-0.8-0.6-1.3c0.1-0.9,0.2-1.8,1.4-1.8c0.6,0.3,1.1,0.9,1.5,1.5l0,0
			c-1.3,0.7-1.2,1.8-0.7,3C49.9,17.7,50.6,18.2,50.1,18.7z"/>
		<path class="st34" d="M50.1,17.2c-1.5-2.2-1.4-2.6,0.7-3c0.2,0.5,0.8,0.9,0.8,1.5C51,16,50.5,16.5,50.1,17.2z"/>
		<path class="st14" d="M48.2,14.6c0.2,0.4,0.4,0.8,0.3,1.2c-1.6-1.6-3.1-3.3-5.2-4.2c-0.2-0.3-0.5-0.6-0.6-0.9
			c-0.1-1,0.2-1.7,1.4-1.7h0.8l1.5,1.1c-1.9,1.6-0.5,2.5,0.7,3.4C47.8,13.5,47.9,14.1,48.2,14.6z"/>
		<path class="st35" d="M48.2,14.6c-0.5-0.2-0.9-0.6-1.1-1.1c-0.1-0.7,0.2-1.4,0.9-1.7c0.8-0.3,1,0.4,1.4,0.9
			C48.7,13.1,48.3,13.8,48.2,14.6z"/>
		<path class="st22" d="M51.2,25.8l-0.7,0.4c0.1-0.8,0.2-1.5,0.3-2.3h0.4v0.4C51.6,24.7,51.6,25.3,51.2,25.8z"/>
		<path class="st32" d="M51.2,25.8v-1.5l2-1.2c0.4,0.4,0.2,0.8,0.2,1.2L51.2,25.8z"/>
		<path class="st19" d="M26.2,29.9c0.3,0.1,0.6,0.4,0.8,0.8c0.3,0.4,1,0.4,0.8,1.1c-0.5,0.6-1.1,1-1.9,1.1
			C24.4,31.1,24.4,30.8,26.2,29.9z"/>
		<path class="st18" d="M44.1,8.9c-0.8,0.3-1.2,1.1-1.1,1.9c-0.5,0.1-1,0-1.4-0.3l-1.1-0.8C41.2,7.9,41.8,7.7,44.1,8.9z"/>
		<path class="st36" d="M40.4,14.5v0.4c-0.2,0.2-0.4,0.3-0.7,0.4c-2.4,0.1-2.4,0.1-4.3,2.1c-0.3,0,0.1,0.3,0,0
			c0.9-0.1,1.4,0.1,1.3,1.1c-1.4,0.3-2.9,0.2-4,1.3c-0.5,0.3-0.9,0.7-1.3,1.1c-0.6,0.4-1.1,0.9-1.8,0.8c-0.3-0.1-0.4-0.3-0.5-0.6
			c0.9-4.7,5.4-7.9,10.1-7.1C39.6,14.3,40,14.4,40.4,14.5z"/>
		<path class="st37" d="M31.8,29.1l-0.4,0.1c-1-0.7-1.6-1.8-1.9-3c0.3-2.8,1.1-3.3,3.6-2.1c0.6,0.2,1.3,0.2,1.5,1
			c-0.2,0.9-0.9,0.6-1.5,0.7c-1.4,0.3-1.9,1-1.5,2.5C31.8,28.5,32,28.8,31.8,29.1z"/>
		<path class="st38" d="M32.9,24.2c-2.3-0.5-2.3-0.5-3.4,2c-0.5-0.4-0.3-1-0.4-1.5c0.2-1-0.3-2.1,0.4-3l1.9-0.8
			c0.3,0,0.5,0.2,0.6,0.4C32.2,22.3,33.1,23.1,32.9,24.2z"/>
		<path class="st39" d="M29.6,21.7c-0.2,1,0.4,2.1-0.4,3c-0.5-1.1-0.5-2.3,0-3.4L29.6,21.7z"/>
		<path class="st14" d="M27.7,31.8l-0.8-1.1h0.6l2.3,2.5C28.7,33.4,28.6,32,27.7,31.8z"/>
		<path class="st15" d="M41.6,10.4c0.5,0,1,0.1,1.5,0.4c0.3,0.1,0.4,0.4,0.4,0.7l-2.2-0.8L41.6,10.4z"/>
		<path class="st13" d="M41.9,22.1c0.1,1.1-0.4,2.2-1.2,2.9c-1.3,0.8-2.4,1.8-3.3,3c-0.5,0.5-1.2,0.8-1.9,0.8
			c-0.3,0.2-0.7,0.2-1.1,0.1c-0.3-0.4,0-0.7,0.2-0.9c2.4-2,4.7-4.3,6.7-6.7c0.2-0.1,0.4-0.1,0.5,0C42.1,21.5,42.1,21.8,41.9,22.1z"
			/>
		<path class="st40" d="M41.6,16.8c0.5,0.4,0.3,1,0.4,1.5c-0.6,1.5-2.5,2.3-2.4,4.2c-0.3,0.9-0.6,1.8-1.7,2c-0.2,0-0.4-0.1-0.5-0.2
			c0-1.2,0.9-2.3,0.8-3.5c0.1-0.5,0.1-1,0.2-1.5C39.3,18.3,39.9,16.9,41.6,16.8z"/>
		<path class="st41" d="M34.4,28.8h1.2c-1.2,0.7-2.5,0.3-3.8,0.3c-0.1-0.2-0.3-0.5-0.4-0.7c0.9-2,2.9-3.2,5.1-3.2
			c0.6,0.8-0.3,1.1-0.5,1.6C35.6,27.6,34.4,27.7,34.4,28.8z"/>
		<path class="st5" d="M39.3,22.4c-0.3-2.1,1.3-3,2.6-4.1c0.6,1.2,0.6,2.6,0,3.8c0-0.3,0-0.5,0-0.8c-0.7-0.5-0.7,0.3-0.9,0.5
			C40.5,22.2,40.1,22.9,39.3,22.4z"/>
		<path class="st42" d="M38.6,19.4c0.1,0.4,0.6,0.8,0,1.1c-1-0.2-1.4-1-1.7-1.9c0.1-1.9,1.8-2.6,2.8-3.8h0.7v0.4
			c0.5,0.9-0.2,1.3-0.6,1.9C39.4,17.9,38.5,18.4,38.6,19.4z"/>
		<path class="st43" d="M38.6,19.4c-0.8-0.7,0-1.2,0.3-1.7c0.5-0.8,1.5-1.4,1.6-2.4c0.6,0.2,1.1,0.8,1.1,1.5L38.6,19.4z"/>
		<path class="st6" d="M37.4,28h-0.3c1-1.3,2.2-2.5,3.5-3.4c0.1,0.2,0.2,0.3,0.2,0.5C40,26.3,38.8,27.4,37.4,28z"/>
		<path class="st44" d="M37,18.7c0.5,0.6,1,1.2,1.5,1.8c0.2,1.3-0.2,2.7-1.1,3.7c-0.6,1-1.8,1.4-2.8,0.8c-0.1,0.1-0.1,0-0.2,0
			l-1.5-0.8c-0.5-0.9-1.4-1.7-1.1-2.9c-0.1-0.6,0.1-1.2,0.6-1.5c0.9-1.3,2.7-1.8,4.2-1.2C36.8,18.5,36.9,18.5,37,18.7z"/>
		<path class="st45" d="M37,18.7c-0.1,0-0.2-0.1-0.3-0.1c-0.1-1-1.1-0.8-1.6-1.3c1.1-1.7,2.5-2.8,4.6-2.4c-0.1,1-1,1.5-1.6,2.2
			C37.6,17.6,37,17.9,37,18.7z"/>
		<path class="st39" d="M32.5,19.8l-0.6,1.5l-0.4-0.4c-0.1-0.5,0.3-1,0.9-1.1C32.3,19.8,32.4,19.8,32.5,19.8z"/>
		<path class="st46" d="M34.4,25c1.1,0.1,2.1-0.1,3-0.7h0.4c0.1,0.8-0.3,1.2-1.1,1.1c-2.3,0-3.6,1.7-5.2,3c-0.6-0.2-0.9-0.8-0.7-1.4
			c0-0.1,0.1-0.2,0.1-0.3c0.4-1,1.4-1.6,2.5-1.6C33.7,25.1,34.1,25.5,34.4,25z"/>
		<path class="st47" d="M36.6,25.4c0.5-0.2,0.9-0.6,1.1-1.1c0.9-0.3,1-1.3,1.5-1.9c1.1-0.1,1.5-1,2.1-1.6c0.2-0.2,0.3-0.2,0.5,0.5
			c-2,3-4.8,5.1-7.5,7.5c-0.9-0.1-0.4-0.5-0.1-0.8C35,27.1,35.8,26.3,36.6,25.4z"/>
	</g>
</g>
</svg>
