<svg xmlns="http://www.w3.org/2000/svg" viewBox="0 0 60.65 69.7"><defs><style>.cls-1{fill:#fefefe;}.cls-2{fill:#23757d;}.cls-3{fill:#b8d5c6;}.cls-4{fill:#25767e;}.cls-5{fill:#79a4a5;}.cls-6{fill:#297981;}.cls-7{fill:#8bb2af;}.cls-8{fill:#7da7a7;}.cls-9{fill:#b4d1c4;}.cls-10{fill:#95bab4;}.cls-11{fill:#a8c8be;}.cls-12{fill:#84acab;}.cls-13{fill:#8fb5b0;}.cls-14{fill:#87afac;}.cls-15{fill:#81aaa9;}.cls-16{fill:#adccc1;}.cls-17{fill:#b5d2c5;}.cls-18{fill:#c1dcce;}.cls-19{fill:#699fa5;}.cls-20{fill:#b2d0c3;}.cls-21{fill:#aacac0;}.cls-22{fill:#a0c2ba;}.cls-23{fill:#3d878f;}.cls-24{fill:#8fb5b2;}.cls-25{fill:#c4ded1;}.cls-26{fill:#c7e0d3;}.cls-27{fill:#81aaaa;}.cls-28{fill:#c6e0d2;}.cls-29{fill:#c4ddd2;}.cls-30{fill:#b7d4c5;}.cls-31{fill:#a2c4bb;}.cls-32{fill:#b5d3c4;}.cls-33{fill:#84adab;}.cls-34{fill:#b0cfc2;}.cls-35{fill:#9abeb7;}.cls-36{fill:#a3c4bb;}.cls-37{fill:#aacabf;}.cls-38{fill:#9bbeb6;}.cls-39{fill:#a1c3bb;}.cls-40{fill:#accbc2;}.cls-41{fill:#93b8b3;}.cls-42{fill:#8ab1ae;}.cls-43{fill:#9cbfb7;}.cls-44{fill:#97bbb5;}.cls-45{fill:#fdfefe;}.cls-46{fill:#9fc1b9;}.cls-47{fill:#92b8b3;}.cls-48{fill:#85adab;}</style></defs><g id="Capa_2" data-name="Capa 2"><g id="Capa_1-2" data-name="Capa 1"><path class="cls-1" d="M0,0Q29.58,0,59.12,0c1.28,0,1.54.25,1.53,1.53q-.07,33.32,0,66.63c0,1.28-.25,1.54-1.53,1.54q-28.78-.09-57.59,0C.25,69.7,0,69.45,0,68.16Q.08,34.1,0,0Z"/><path class="cls-2" d="M23.59,38.24c-.8.13-1.81.22-1.78,1.25s1,1.27,1.93,1.38c7.4.87,14.57.59,20.92-4,.59-.43,1.3-.94,2-.29s.22,1.39-.13,2a14.12,14.12,0,0,1-6.36,5.58,73.87,73.87,0,0,1-14.38,5.16A28.92,28.92,0,0,0,9.27,61.38c-.43.62-.7,1.63-1.71,1.5s-1-1.27-1.22-2.07A32.77,32.77,0,0,1,5.19,49.53a12.8,12.8,0,0,1,7.39-10.92c2-1,4.11-1.75,6.18-2.61a2.47,2.47,0,0,1,.8-.71c1.38-.61,2.84-1,4.25-1.56a18.57,18.57,0,0,0,3.65-1.89c1.89-.44,2-.34,2.16,1.66a4.51,4.51,0,0,1-1.25,2.28A7.67,7.67,0,0,1,23.59,38.24Z"/><path class="cls-3" d="M13.47,20.61l0-.73a1.22,1.22,0,0,0,.34-1.13c1.09-5.31,6.84-10.71,12-11.26A1.23,1.23,0,0,0,27,7.17a16.09,16.09,0,0,1,4.85,0,.64.64,0,0,1,.11.76,1.23,1.23,0,0,1-.44.3c-.65.21-1.45.06-2,.72.29.61.87.27,1.27.43a1.24,1.24,0,0,1,.73.4.93.93,0,0,1-.5,1,3.92,3.92,0,0,1-1.82.26c-7.1-.1-12.8,6.64-12,13.45a2.44,2.44,0,0,1-.12,1.28c-.3.4-1,.88-1.07.3-.26-1.53-1.61-1.28-2.43-1.85A28.35,28.35,0,0,1,13.47,20.61Z"/><path class="cls-4" d="M27.76,50.65C30,50,32.17,49.3,34.39,48.7A25.52,25.52,0,0,0,45.7,42.4c.36-.35.72-1,1.38-.58s.21,1,0,1.54c-1.49,4.12-4.76,6.09-8.74,7.11A31.45,31.45,0,0,1,34.5,51a55.38,55.38,0,0,1-6.31.12A.38.38,0,0,1,27.76,50.65Z"/><path class="cls-5" d="M42,33.39a10,10,0,0,1-3.8,3.41,21.06,21.06,0,0,0-2.39,1c-.34.12-.72.34-1,0s-.13-.83.14-1.19a20.48,20.48,0,0,1,1.92-2,5.42,5.42,0,0,0,1.35-1.77,2.13,2.13,0,0,1,.95-.95c1.36-.57,2.17-1.77,3.18-2.74.38-.37.84-.95,1.4-.61s.28,1.12.06,1.67C43.35,31.34,42.48,32.25,42,33.39Z"/><path class="cls-6" d="M35.88,52.84c-.18-.08-.86.06-.37-.35a4,4,0,0,1,1.76-.44,16.65,16.65,0,0,0,7.82-3.56c.34-.3.72-.9,1.23-.46s.07.92-.19,1.32a7.24,7.24,0,0,1-5.62,3.51A15,15,0,0,1,35.88,52.84Z"/><path class="cls-7" d="M23.59,38.24c1.48-.89,3.25-1.31,4.45-2.67a5.52,5.52,0,0,1,2.49.12c.6.4,1,1,.09,1.31-1.47.53-1.16,1.38-.66,2.37A10.66,10.66,0,0,1,23.59,38.24Z"/><path class="cls-8" d="M42,33.39c-.45-.8.36-1.15.63-1.67.47-.92,1.21-1.73,1.09-3-1.82.92-2.48,3.07-4.44,3.56.33-1.77,1.63-3,2.56-4.4.34-.25.61-.58.93-.86,1.17-1.06,1.71-.85,2.15.78A11.28,11.28,0,0,1,42,33.39Z"/><path class="cls-8" d="M38.55,33c-.61,2-2.77,2.71-3.71,4.61,1.35.33,2.13-1.32,3.38-.79a7.92,7.92,0,0,1-3.78,1.8,1.29,1.29,0,0,0-1.12.34A.5.5,0,0,1,33,39a1,1,0,0,1-.86-.46c.13-1.35,1.53-1.82,2-2.91a4.33,4.33,0,0,1,.58-.82,1.17,1.17,0,0,1,.44-.2,3.31,3.31,0,0,0,1.49-.76C37.28,33.61,37.66,32.73,38.55,33Z"/><path class="cls-9" d="M13.87,24.37c1.46-.77,2.49-.85,2.29,1.32-.05.47.42.23.68.18,1,.43.89,1.3.93,2.13a.93.93,0,0,1-.53.6.69.69,0,0,1-.5-.12c-.4-.3-.36-1.25-1.09-1s-.44,1-.28,1.59a6.8,6.8,0,0,0,.31.86c0,.41.68,1.06-.36,1.16a7.08,7.08,0,0,1-1.47-3.39,7.53,7.53,0,0,0,0-.95,3.52,3.52,0,0,0-.32-1.46A1,1,0,0,1,13.87,24.37Z"/><path class="cls-10" d="M44.5,17.26l.38,1.12c-1.27.47-2.14,1.14-1.82,2.74.1.55.17,1.47-.93,1.4-.94-1-.8-2.25-.89-3.45.24-.61-.16-1.22,0-1.84A2.35,2.35,0,0,1,43,15.55C43.94,15.69,43.88,16.78,44.5,17.26Z"/><path class="cls-11" d="M39.71,10.8c1.54.74,2.36,2.13,3.26,3.47a.64.64,0,0,1-.71.12,8.64,8.64,0,0,1-1.73-1.46c-1.17-1.18-1.43.34-2.09.69-2.29-1-2.53-2-.88-3.63C38.46,9.77,39,10.66,39.71,10.8Z"/><path class="cls-12" d="M32.2,38.59A.78.78,0,0,1,33,39a5.7,5.7,0,0,1-3,.36c-.24-.68-1.56-.07-1.4-1.08a1.89,1.89,0,0,1,1.61-1.53c.5-.09.84-.15.53-.75a.72.72,0,0,1,.71-.25,1.53,1.53,0,0,1,.87.55C32.62,37.08,31.42,37.8,32.2,38.59Z"/><path class="cls-13" d="M42.27,22.49c.67-.58.41-1.36.35-2-.14-1.66.44-2.23,2.26-2.06a.74.74,0,0,1,.06.36,1.23,1.23,0,0,0,.33,1.14.63.63,0,0,1,0,.36,1,1,0,0,1-.43.63c-1.51.55-1.09,2.48-2.31,3.24a.52.52,0,0,1-.47-.25A1.16,1.16,0,0,1,42.27,22.49Z"/><path class="cls-14" d="M42.67,24c.69-1.16,0-3.24,2.24-3.36.63.61.25,1.56.72,2.23v.77c-.38.59,0,1.3-.29,1.91-.66.08-.71-.43-.83-.87-.15-.24.27-1.12-.61-.53a1.42,1.42,0,0,1-1.22.3.29.29,0,0,1-.1-.3Q42.63,24,42.67,24Z"/><path class="cls-15" d="M44.91,24.37c0,.41-.06.85.36,1.13.25.25,0,.48,0,.73a1.67,1.67,0,0,1-.31,1.52c-.64-1.17-1.3-1.62-2.08-.11a1,1,0,0,1-.94.47c-.31-.79.16-1.43.41-2.12a2.36,2.36,0,0,1,.28-.42C43.28,25,43.78,24.07,44.91,24.37Z"/><path class="cls-16" d="M15.32,31.13c.51-.36-.08-.77,0-1.15,0-1,.43-1.56,1.5-1.5h.37a1.2,1.2,0,0,1,.55,1.4,2.1,2.1,0,0,0-.4,3,.82.82,0,0,1-.11.51.34.34,0,0,1-.46,0A4.7,4.7,0,0,1,15.32,31.13Z"/><path class="cls-17" d="M31.45,9.77H30.7c-.56-.95.29-1.33.75-1.87h.38A1.48,1.48,0,0,1,33,7.49a5.6,5.6,0,0,1,3.37,1.13.34.34,0,0,1,.1.32c0,.11-.05.16-.08.16a1,1,0,0,1-.77.16c-1.32-.48-2.62-.85-3.64.57A.44.44,0,0,1,31.45,9.77Z"/><path class="cls-18" d="M13.87,24.37v1.12c-.12.15-.16.38-.4.41a8.54,8.54,0,0,1,0-5.29C14.3,21.79,13.68,23.12,13.87,24.37Z"/><path class="cls-19" d="M27.76,50.65c2.21.79,4.51-.06,6.74.34-2.6.61-5.23.26-8,.36A1.31,1.31,0,0,1,27.76,50.65Z"/><path class="cls-20" d="M36.31,9v-.4a7,7,0,0,1,3.39,2.18c-.88.49-1.21-.6-1.9-.66C37.26,9.83,36.25,10.15,36.31,9Z"/><path class="cls-21" d="M16.82,33.37l.42,0a2.3,2.3,0,0,1,2.28,2.31l-.76.34C18.43,34.88,17.13,34.5,16.82,33.37Z"/><path class="cls-22" d="M42.29,14.26H43c.56,1,1.38,1.81,1.53,3-.94-.06-.82-1.15-1.46-1.5a1.83,1.83,0,0,1-.84-1.26Z"/><path class="cls-23" d="M35.88,52.84l4.63,0A7.13,7.13,0,0,1,35.88,52.84Z"/><path class="cls-24" d="M45.63,22.86a2.56,2.56,0,0,1-.72-2.23l.4-.39A4.38,4.38,0,0,1,45.63,22.86Z"/><path class="cls-24" d="M45.25,26.23c-.4-.26,0-.49,0-.73.11-.63-.22-1.34.36-1.87C45.6,24.51,45.93,25.44,45.25,26.23Z"/><path class="cls-25" d="M33,7.49c-.25.47-.7.39-1.12.4,0-.24,0-.48,0-.73C32.23,7.15,32.66,7.09,33,7.49Z"/><path class="cls-26" d="M13.85,18.75c.64.6.46,1-.34,1.13C13.5,19.46,13.45,19,13.85,18.75Z"/><path class="cls-10" d="M45.27,19.88c-.81-.17-1-.54-.33-1.14A1.25,1.25,0,0,1,45.27,19.88Z"/><path class="cls-3" d="M13.47,25.9l.4-.41a2.48,2.48,0,0,1,.38,1.5c-.43.23-.54-.17-.74-.38Z"/><path class="cls-27" d="M33.32,38.94c.17-.79.53-.95,1.12-.34A1.25,1.25,0,0,1,33.32,38.94Z"/><path class="cls-28" d="M27,7.17c-.18.8-.54,1-1.14.32C26.13,7.09,26.55,7.15,27,7.17Z"/><path class="cls-29" d="M13.51,26.61l.74.38a.76.76,0,0,1-.4.75C13.45,27.45,13.5,27,13.51,26.61Z"/><path class="cls-1" d="M42.27,22.49V24c.55.73,0,1.44,0,2.16A14.53,14.53,0,0,1,37,33.84c-.66.2-1,1-1.83.91a.68.68,0,0,0-.33.13A3.41,3.41,0,0,1,31.45,36l-.75,0c-.87-.23-1.88.35-2.66-.44l1.16-1.85c.27-.88.21-1.78,1.6-2a8.52,8.52,0,0,0,7.26-7.83c.28-4-2.08-7.39-6.25-8.86C26.48,13.87,22.57,16.2,21,21.42a5.48,5.48,0,0,0-.13,3.18,12.83,12.83,0,0,0,.38,1.51,7.19,7.19,0,0,0,1.9,3,7.33,7.33,0,0,0,3.32,2.29c.43.13,1.05.19.92.92A11,11,0,0,1,24,34.11a2.62,2.62,0,0,1-2.65-.39A19.66,19.66,0,0,1,18.74,31a5.57,5.57,0,0,1-1.17-2.86c-.25-.75-.49-1.5-.73-2.25a12.94,12.94,0,0,1,1.7-9.28c2.91-4.6,7.21-6.44,12.54-6.09.51-.37,1.05-.14,1.58-.06a13.26,13.26,0,0,1,2.3.78,22.38,22.38,0,0,1,5.29,4.41,10.53,10.53,0,0,1,1.25,3.14Z"/><path class="cls-30" d="M27.41,32.29c-1.7-.76-3.55-1.28-4.62-3a1,1,0,0,1,.45-.37c1.12-.36,2.31,0,3.43-.32a5.17,5.17,0,0,0,1.92-.77,9.81,9.81,0,0,0,3.3-3A5.57,5.57,0,0,0,33,22a7.91,7.91,0,0,0,0-3.39,12.51,12.51,0,0,0-.34-1.47,7,7,0,0,0-1-1.62A1,1,0,0,1,31.6,15a.69.69,0,0,1,.24-.42,8.74,8.74,0,0,1,6.71,8.86,9,9,0,0,1-7.28,8.67,2.39,2.39,0,0,0-2.07,1.59C29.22,31.61,29.17,31.57,27.41,32.29Z"/><path class="cls-31" d="M21.38,33.29a3.62,3.62,0,0,0,2.59.82l-4.46,1.55a7.81,7.81,0,0,0-2.27-2.31V33a3.2,3.2,0,0,1,1.88-1.29C20.14,31.84,20.41,33.05,21.38,33.29Z"/><path class="cls-32" d="M31.45,7.9,30.7,9.77c-.69-.19-1.95.46-2-.49s1.07-1.5,2.19-1.39A4.87,4.87,0,0,0,31.45,7.9Z"/><path class="cls-32" d="M32.58,10.85l-1.5-.35.37-.73h.37c.52,0,1,0,1.23.58C33.05,10.66,32.78,10.72,32.58,10.85Z"/><path class="cls-33" d="M36.69,33.79a14.75,14.75,0,0,0,5.23-7.55c.2-.22.33-.58.75-.38l-.75,2.25a18.68,18.68,0,0,1-2.62,4.12,1.32,1.32,0,0,0-.75.75c-.68.26-1,1.15-1.86,1.13-.11-.07-.15-.14-.11-.21S36.65,33.79,36.69,33.79Z"/><path class="cls-27" d="M32.2,38.59c-.6-.05-1.43.08-.73-1,.28-.4.49-.85.73-1.27a2.23,2.23,0,0,1,2.24-.75C34.24,37,32.73,37.43,32.2,38.59Z"/><path class="cls-7" d="M34.44,35.6l-2.24.75a.77.77,0,0,1-.75-.39l3.37-1.08A.76.76,0,0,1,34.44,35.6Z"/><path class="cls-7" d="M36.69,33.79v.32c-.38.51-.73,1.13-1.54.64Z"/><path class="cls-34" d="M16.87,28.48a3.86,3.86,0,0,0-1.5,1.5L14.89,29c-.5-1-.31-2,.73-2.25C16.86,26.48,16.75,27.68,16.87,28.48Z"/><path class="cls-34" d="M17.57,28.12,19,30.74a.62.62,0,0,1-.67.16,1.25,1.25,0,0,1-.76-.92l-.37-1.49Z"/><path class="cls-22" d="M41.5,18.77,40,15.86c-.12-.47-.51-.81-.62-1.29.08-.91.2-1.79,1.42-1.81a3.77,3.77,0,0,1,1.49,1.5h0c-1.32.73-1.19,1.82-.74,3C41.35,17.75,42,18.28,41.5,18.77Z"/><path class="cls-35" d="M41.55,17.26c-1.49-2.16-1.39-2.55.74-3,.21.52.81.85.75,1.5A3.77,3.77,0,0,0,41.55,17.26Z"/><path class="cls-16" d="M39.68,14.64A1.92,1.92,0,0,1,40,15.85c-1.6-1.57-3.1-3.26-5.18-4.24a5.68,5.68,0,0,1-.63-.91c-.07-1,.19-1.72,1.37-1.68h.75l1.5,1.12c-1.87,1.6-.52,2.48.74,3.37C39.23,13.59,39.34,14.22,39.68,14.64Z"/><path class="cls-36" d="M39.68,14.64a2.38,2.38,0,0,1-1.13-1.13,1.49,1.49,0,0,1,.88-1.67c.76-.29,1,.43,1.37.92A2.32,2.32,0,0,0,39.68,14.64Z"/><path class="cls-24" d="M42.67,25.86l-.75.38c.12-.75.24-1.5.35-2.25h.4v.38a1.12,1.12,0,0,1,0,1.49Z"/><path class="cls-33" d="M42.67,25.86V24.37l2-1.23c.37.37.15.83.21,1.23Z"/><path class="cls-21" d="M17.61,30a1.26,1.26,0,0,1,.75.75c.29.35,1,.41.75,1.12A3.5,3.5,0,0,1,17.24,33C15.82,31.15,15.85,30.9,17.61,30Z"/><path class="cls-20" d="M35.56,9a1.78,1.78,0,0,0-1.12,1.87A1.77,1.77,0,0,1,33,10.52l-1.13-.75C32.66,8,33.24,7.83,35.56,9Z"/><path class="cls-37" d="M31.84,14.6l0,.41a1.58,1.58,0,0,1-.71.4c-2.37.15-2.37.15-4.26,2.09-.25,0,.15.27,0,.05.91-.15,1.44.12,1.32,1.15-1.36.32-2.88.16-4,1.31a4.81,4.81,0,0,0-1.28,1.14c-.56.4-1.06.91-1.83.79-.28-.1-.38-.34-.51-.57A8.73,8.73,0,0,1,31.84,14.6Z"/><path class="cls-38" d="M23.23,29.21l-.44.07a5,5,0,0,1-1.85-3c.26-2.78,1.14-3.3,3.61-2.15.57.19,1.25.21,1.46,1-.17.94-.94.56-1.49.67-1.44.3-1.85,1-1.48,2.49C23.21,28.54,23.41,28.84,23.23,29.21Z"/><path class="cls-39" d="M24.37,24.28c-2.29-.45-2.29-.45-3.43,2-.46-.42-.34-1-.38-1.5.22-1-.29-2.09.42-3L22.85,21a.85.85,0,0,1,.6.44C23.63,22.43,24.5,23.19,24.37,24.28Z"/><path class="cls-40" d="M21,21.75c-.18,1,.41,2.1-.42,3a4,4,0,0,1,0-3.39Z"/><path class="cls-16" d="M19.11,31.85l-.75-1.12H19l2.34,2.55C20.19,33.5,20,32.09,19.11,31.85Z"/><path class="cls-17" d="M33,10.52a2.51,2.51,0,0,1,1.49.37.74.74,0,0,1,.38.72l-2.24-.76Z"/><path class="cls-15" d="M33.34,22.15a3.83,3.83,0,0,1-1.15,2.93,11.78,11.78,0,0,0-3.33,3,2.38,2.38,0,0,1-1.88.75,1.38,1.38,0,0,1-1.07.12c-.33-.42,0-.7.24-.94a59.61,59.61,0,0,0,6.73-6.66.45.45,0,0,1,.52,0A.77.77,0,0,1,33.34,22.15Z"/><path class="cls-41" d="M33,16.88c.52.39.33,1,.39,1.49-.6,1.5-2.46,2.28-2.37,4.18-.33.87-.58,1.8-1.69,2a.85.85,0,0,1-.5-.18c0-1.23.9-2.27.83-3.53a10.88,10.88,0,0,0,.15-1.51C30.7,18.37,31.36,17,33,16.88Z"/><path class="cls-42" d="M25.84,28.86H27c-1.19.72-2.5.25-3.75.34-.13-.24-.26-.48-.38-.73a5.36,5.36,0,0,1,5.06-3.17c.62.82-.25,1.13-.55,1.65C27,27.68,25.81,27.8,25.84,28.86Z"/><path class="cls-7" d="M30.7,22.49c-.32-2.14,1.34-3,2.64-4.12a4.5,4.5,0,0,1,0,3.78c0-.26,0-.52,0-.78-.66-.47-.65.3-.91.52C31.91,22.31,31.53,23,30.7,22.49Z"/><path class="cls-43" d="M30,19.5c.11.38.6.76,0,1.13-1.05-.19-1.44-.95-1.67-1.86.08-1.9,1.79-2.57,2.81-3.76h.74v.37c.54.85-.2,1.33-.56,1.91C30.81,18,29.9,18.47,30,19.5Z"/><path class="cls-44" d="M30,19.5c-.81-.73,0-1.19.31-1.7.52-.81,1.45-1.35,1.56-2.42A1.8,1.8,0,0,1,33,16.88Z"/><path class="cls-8" d="M28.86,28.12l-.36-.07A17.62,17.62,0,0,1,32,24.62c.07.16.15.31.22.46A8.27,8.27,0,0,1,28.86,28.12Z"/><path class="cls-45" d="M28.43,18.81c.51.6,1,1.21,1.51,1.82a4.42,4.42,0,0,1-1.1,3.74,2.07,2.07,0,0,1-3,.7l-1.49-.79c-.5-.92-1.36-1.7-1.12-2.9a1.46,1.46,0,0,1,.65-1.5,3.46,3.46,0,0,1,4.19-1.2C28.26,18.57,28.37,18.62,28.43,18.81Z"/><path class="cls-46" d="M28.43,18.81a1.4,1.4,0,0,1-.34-.13c-.11-1-1.13-.79-1.63-1.29,1.08-1.72,2.48-2.77,4.62-2.38-.08,1-1,1.46-1.6,2.15C29.06,17.66,28.44,18,28.43,18.81Z"/><path class="cls-40" d="M23.9,19.88l-.65,1.5-.4-.38A1,1,0,0,1,23.9,19.88Z"/><path class="cls-47" d="M25.86,25.07a4.66,4.66,0,0,0,3-.7h.37c.07.83-.29,1.21-1.13,1.12-2.28.05-3.65,1.72-5.23,3a1.12,1.12,0,0,1-.59-1.67,2.8,2.8,0,0,1,2.48-1.62C25.13,25.2,25.53,25.62,25.86,25.07Z"/><path class="cls-48" d="M28.08,25.49a2.36,2.36,0,0,0,1.13-1.12c.9-.31.95-1.28,1.49-1.88,1.06-.1,1.49-1,2.15-1.65.23-.24.25-.22.47.53-2,3-4.83,5.15-7.48,7.49-.91-.12-.41-.49-.13-.8C26.49,27.2,27.29,26.35,28.08,25.49Z"/></g></g></svg>