<svg xmlns="http://www.w3.org/2000/svg" viewBox="0 0 141.9 121.14"><defs><style>.cls-1{fill:#fff;}.cls-2{fill:none;}</style></defs><g id="Capa_2" data-name="Capa 2"><g id="Capa_1-2" data-name="Capa 1"><path class="cls-1" d="M17.38,96.21v4.4a2.47,2.47,0,0,0,.31,1.38,1.65,1.65,0,0,0,2.59,0,2.34,2.34,0,0,0,.31-1.38v-4.4h1.1v4.71a2.63,2.63,0,0,1-.72,1.9,2.79,2.79,0,0,1-4,0,2.63,2.63,0,0,1-.72-1.9V96.21Z"/><path class="cls-1" d="M23.44,103.52v-7.8l5.33,5.57V96.21h1.1V104l-5.33-5.55v5.11Z"/><path class="cls-1" d="M32.72,96.21v7.31h-1.1V96.21Z"/><path class="cls-1" d="M34.48,103.52V96.21H36a5.67,5.67,0,0,1,1.74.22,3.32,3.32,0,0,1,1.25.73,3.49,3.49,0,0,1,1.13,2.71,3.58,3.58,0,0,1-2.42,3.45,5.85,5.85,0,0,1-1.72.2Zm1.1-1h.5a4.3,4.3,0,0,0,1.23-.15,2.45,2.45,0,0,0,.89-.53A2.5,2.5,0,0,0,39,99.87a2.54,2.54,0,0,0-.81-2,3,3,0,0,0-2.13-.67h-.5Z"/><path class="cls-1" d="M45.45,101.75H42.32l-.82,1.77H40.32l3.61-7.76,3.49,7.76H46.21Zm-.45-1-1.09-2.48-1.13,2.48Z"/><path class="cls-1" d="M48.33,103.52V96.21h1.53a5.79,5.79,0,0,1,1.75.22,3.28,3.28,0,0,1,1.24.73A3.49,3.49,0,0,1,54,99.87a3.44,3.44,0,0,1-1.18,2.72,3.38,3.38,0,0,1-1.24.73,5.78,5.78,0,0,1-1.71.2Zm1.1-1h.5a4.33,4.33,0,0,0,1.24-.15,2.63,2.63,0,0,0,.89-.53,2.49,2.49,0,0,0,.81-1.93,2.54,2.54,0,0,0-.81-2,3,3,0,0,0-2.13-.67h-.5Z"/><path class="cls-1" d="M58.36,103.52V96.21h1.53a5.67,5.67,0,0,1,1.74.22,3.32,3.32,0,0,1,1.25.73,3.77,3.77,0,0,1-.05,5.43,3.55,3.55,0,0,1-1.24.73,5.85,5.85,0,0,1-1.72.2Zm1.1-1H60a4.3,4.3,0,0,0,1.23-.15,2.45,2.45,0,0,0,.89-.53,2.49,2.49,0,0,0,.81-1.93,2.53,2.53,0,0,0-.8-2A3,3,0,0,0,60,97.25h-.5Z"/><path class="cls-1" d="M69.42,97.25H66.5V99h2.84v1H66.5v2.44h2.92v1h-4V96.21h4Z"/><path class="cls-1" d="M73.86,103.52V96.21H75a4.56,4.56,0,0,1,1.17.12,1.68,1.68,0,0,1,.74.38,2,2,0,0,1,.49.7,2.13,2.13,0,0,1,.18.85,1.73,1.73,0,0,1-.6,1.33,1.73,1.73,0,0,1,.92.69,2.06,2.06,0,0,1-.27,2.6,1.93,1.93,0,0,1-.81.5,4.9,4.9,0,0,1-1.25.14ZM75,99.35h.35a1.27,1.27,0,0,0,.9-.27,1.06,1.06,0,0,0,.29-.8,1,1,0,0,0-.3-.79,1.25,1.25,0,0,0-.85-.26H75Zm0,3.13h.69a1.65,1.65,0,0,0,1.09-.29,1,1,0,0,0,.37-.8,1.06,1.06,0,0,0-.35-.8,1.85,1.85,0,0,0-1.24-.32H75Z"/><path class="cls-1" d="M80.69,96.21v4.4A2.47,2.47,0,0,0,81,102a1.65,1.65,0,0,0,2.59,0,2.42,2.42,0,0,0,.31-1.38v-4.4H85v4.71a2.63,2.63,0,0,1-.72,1.9,2.79,2.79,0,0,1-4,0,2.63,2.63,0,0,1-.72-1.9V96.21Zm3.28-2L82,95.56l-.53-.44L83,93.59Z"/><path class="cls-1" d="M90.88,97.3l-.89.53a1.61,1.61,0,0,0-.48-.57,1.27,1.27,0,0,0-1.37.11.8.8,0,0,0-.31.65c0,.35.27.64.8.86l.73.3a3.21,3.21,0,0,1,1.3.87,2,2,0,0,1,.41,1.27A2.22,2.22,0,0,1,90.4,103a2.31,2.31,0,0,1-1.68.66,2.25,2.25,0,0,1-1.57-.56,2.57,2.57,0,0,1-.76-1.59l1.11-.24a1.86,1.86,0,0,0,.27.89,1.15,1.15,0,0,0,1,.47,1.17,1.17,0,0,0,.86-.34,1.24,1.24,0,0,0,.34-.88,1.23,1.23,0,0,0-.06-.39.92.92,0,0,0-.19-.33,1.49,1.49,0,0,0-.32-.28,2.93,2.93,0,0,0-.47-.24l-.71-.3A2,2,0,0,1,86.71,98a1.76,1.76,0,0,1,.63-1.38,2.29,2.29,0,0,1,1.57-.56A2.18,2.18,0,0,1,90.88,97.3Z"/><path class="cls-1" d="M99.83,103.65H98.45l-.58-.58a3.67,3.67,0,0,1-2,.58,3.83,3.83,0,0,1-2.58-1A3.53,3.53,0,0,1,92,99.9a3.64,3.64,0,0,1,1.16-2.75,3.71,3.71,0,0,1,2.66-1.07,3.78,3.78,0,0,1,2.5.93A3.68,3.68,0,0,1,99.67,100a3.57,3.57,0,0,1-1,2.52Zm-3-3,1.06,1.05a2.47,2.47,0,0,0,.7-1.8,2.71,2.71,0,0,0-.78-2,2.62,2.62,0,0,0-1.94-.8,2.55,2.55,0,0,0-1.93.8,2.75,2.75,0,0,0-.76,2,2.55,2.55,0,0,0,.78,1.93,2.64,2.64,0,0,0,1.87.78,2.53,2.53,0,0,0,1.29-.33l-1.72-1.66Z"/><path class="cls-1" d="M102.16,96.21v4.4a2.39,2.39,0,0,0,.31,1.38,1.64,1.64,0,0,0,2.58,0,2.34,2.34,0,0,0,.31-1.38v-4.4h1.1v4.71a2.62,2.62,0,0,1-.71,1.9,2.7,2.7,0,0,1-2,.83,2.65,2.65,0,0,1-2.7-2.73V96.21Z"/><path class="cls-1" d="M112.25,97.25h-2.93V99h2.84v1h-2.84v2.44h2.93v1h-4V96.21h4Z"/><path class="cls-1" d="M113.69,103.52V96.21h1.54a5.76,5.76,0,0,1,1.74.22,3.21,3.21,0,0,1,1.24.73,3.78,3.78,0,0,1,0,5.43,3.55,3.55,0,0,1-1.24.73,5.9,5.9,0,0,1-1.72.2Zm1.11-1h.49a4.33,4.33,0,0,0,1.24-.15,2.54,2.54,0,0,0,.89-.53,2.49,2.49,0,0,0,.81-1.93,2.56,2.56,0,0,0-.8-2,3.05,3.05,0,0,0-2.14-.67h-.49Z"/><path class="cls-1" d="M124.66,101.75h-3.13l-.81,1.77h-1.19l3.62-7.76,3.48,7.76h-1.2Zm-.45-1-1.08-2.48L122,100.71Z"/><path class="cls-1" d="M10.1,111.07v-4.32H11a3.19,3.19,0,0,1,1,.13,1.8,1.8,0,0,1,.74.43,2.25,2.25,0,0,1,0,3.21A2,2,0,0,1,12,111a3.26,3.26,0,0,1-1,.12Zm.65-.61h.3a2.55,2.55,0,0,0,.73-.09,1.54,1.54,0,0,0,.53-.32,1.47,1.47,0,0,0,.48-1.14,1.49,1.49,0,0,0-.48-1.15,1.77,1.77,0,0,0-1.26-.4h-.3Z"/><path class="cls-1" d="M16.65,107.36H14.92v1H16.6V109H14.92v1.45h1.73v.61H14.26v-4.32h2.39Z"/><path class="cls-1" d="M19.92,109.32v1.75h-.65v-4.32H20a2.87,2.87,0,0,1,.82.08,1.05,1.05,0,0,1,.49.28,1.23,1.23,0,0,1,.38.92,1.21,1.21,0,0,1-.4.94,1.58,1.58,0,0,1-1.07.35Zm0-.61h.25q.9,0,.9-.69c0-.45-.31-.67-.93-.67h-.22Z"/><path class="cls-1" d="M24.75,107.36H23v1H24.7V109H23v1.45h1.73v.61H22.37v-4.32h2.38Z"/><path class="cls-1" d="M27.07,109.23l1.34,1.84h-.8l-1.23-1.77h-.12v1.77h-.65v-4.32h.76a1.94,1.94,0,0,1,1.24.32,1.19,1.19,0,0,1,.42,1,1.27,1.27,0,0,1-.26.79A1.18,1.18,0,0,1,27.07,109.23Zm-.81-.5h.21c.62,0,.92-.23.92-.7s-.3-.67-.9-.67h-.23Z"/><path class="cls-1" d="M31.5,107.39l-.53.32a.93.93,0,0,0-.28-.34.73.73,0,0,0-.81.07.46.46,0,0,0-.18.38c0,.21.16.38.47.51l.43.17a1.86,1.86,0,0,1,.77.52,1.18,1.18,0,0,1,.24.75,1.34,1.34,0,0,1-.39,1,1.38,1.38,0,0,1-1,.39,1.36,1.36,0,0,1-.93-.33,1.58,1.58,0,0,1-.45-.94l.66-.15a1.18,1.18,0,0,0,.16.53.67.67,0,0,0,.59.28.66.66,0,0,0,.5-.21.66.66,0,0,0,.21-.51.79.79,0,0,0,0-.23.56.56,0,0,0-.11-.2.77.77,0,0,0-.19-.16l-.28-.15-.42-.17a1.2,1.2,0,0,1-.88-1.1,1,1,0,0,1,.37-.81,1.36,1.36,0,0,1,.93-.33A1.29,1.29,0,0,1,31.5,107.39Z"/><path class="cls-1" d="M32.18,108.89a2.15,2.15,0,0,1,.67-1.57,2.24,2.24,0,0,1,1.6-.65,2.25,2.25,0,0,1,2.25,2.25A2.15,2.15,0,0,1,36,110.5a2.27,2.27,0,0,1-1.62.65,2.19,2.19,0,0,1-1.5-.58A2.13,2.13,0,0,1,32.18,108.89Zm.66,0a1.57,1.57,0,0,0,.48,1.18,1.62,1.62,0,0,0,2.26-2.33,1.52,1.52,0,0,0-1.13-.47,1.6,1.6,0,0,0-1.61,1.62Z"/><path class="cls-1" d="M37.52,111.07v-4.61l3.15,3.29v-3h.65v4.58l-3.15-3.28v3Z"/><path class="cls-1" d="M44.93,110H43.08l-.48,1h-.7L44,106.48l2.06,4.59h-.72Zm-.26-.61L44,107.94l-.67,1.47Z"/><path class="cls-1" d="M49.08,107.39l-.53.32a.93.93,0,0,0-.28-.34.73.73,0,0,0-.81.07.46.46,0,0,0-.18.38c0,.21.16.38.47.51l.43.17A1.86,1.86,0,0,1,49,109a1.18,1.18,0,0,1,.24.75,1.34,1.34,0,0,1-.39,1,1.38,1.38,0,0,1-1,.39,1.36,1.36,0,0,1-.93-.33,1.58,1.58,0,0,1-.45-.94l.66-.15a1.18,1.18,0,0,0,.16.53.67.67,0,0,0,.59.28.66.66,0,0,0,.5-.21.66.66,0,0,0,.21-.51.79.79,0,0,0,0-.23.56.56,0,0,0-.11-.2.77.77,0,0,0-.19-.16l-.28-.15-.42-.17a1.2,1.2,0,0,1-.88-1.1A1,1,0,0,1,47,107a1.35,1.35,0,0,1,.92-.33A1.3,1.3,0,0,1,49.08,107.39Z"/><path class="cls-1" d="M51.75,111.07v-4.32h.91a3.12,3.12,0,0,1,1,.13,1.74,1.74,0,0,1,.74.43,2.22,2.22,0,0,1,0,3.21,1.9,1.9,0,0,1-.73.43,3.37,3.37,0,0,1-1,.12Zm.65-.61h.29a2.46,2.46,0,0,0,.73-.09,1.45,1.45,0,0,0,.53-.32,1.47,1.47,0,0,0,.48-1.14,1.51,1.51,0,0,0-.47-1.15,1.79,1.79,0,0,0-1.27-.4H52.4Z"/><path class="cls-1" d="M58.24,110H56.39l-.49,1h-.7l2.14-4.59,2.06,4.59h-.71Zm-.27-.61-.64-1.47-.67,1.47Z"/><path class="cls-1" d="M59.94,111.07v-4.32h.91a3.19,3.19,0,0,1,1,.13,1.77,1.77,0,0,1,.73.43,2.23,2.23,0,0,1,0,3.21,2,2,0,0,1-.74.43,3.3,3.3,0,0,1-1,.12Zm.65-.61h.3a2.55,2.55,0,0,0,.73-.09,1.41,1.41,0,0,0,.52-.32,1.44,1.44,0,0,0,.49-1.14,1.49,1.49,0,0,0-.48-1.15,1.78,1.78,0,0,0-1.26-.4h-.3Z"/><path class="cls-1" d="M66.43,110H64.58l-.48,1h-.7l2.13-4.59,2.07,4.59h-.72Zm-.27-.61-.64-1.47-.67,1.47Z"/><path class="cls-1" d="M70.58,107.39l-.53.32a.93.93,0,0,0-.28-.34.69.69,0,0,0-.36-.09.64.64,0,0,0-.45.16.46.46,0,0,0-.18.38c0,.21.15.38.47.51l.43.17a1.86,1.86,0,0,1,.77.52,1.18,1.18,0,0,1,.24.75,1.31,1.31,0,0,1-.4,1,1.46,1.46,0,0,1-1.92.06,1.58,1.58,0,0,1-.45-.94l.66-.15a1.07,1.07,0,0,0,.16.53.67.67,0,0,0,.59.28.7.7,0,0,0,.7-.72.8.8,0,0,0,0-.23.78.78,0,0,0-.11-.2.77.77,0,0,0-.19-.16l-.28-.15-.42-.17a1.21,1.21,0,0,1-.89-1.1,1,1,0,0,1,.38-.81,1.31,1.31,0,0,1,.92-.33A1.3,1.3,0,0,1,70.58,107.39Z"/><path class="cls-1" d="M73.9,109.32v1.75h-.65v-4.32H74a2.83,2.83,0,0,1,.82.08,1.08,1.08,0,0,1,.5.28,1.22,1.22,0,0,1,.37.92,1.18,1.18,0,0,1-.4.94,1.57,1.57,0,0,1-1.07.35Zm0-.61h.24q.9,0,.9-.69c0-.45-.31-.67-.93-.67H73.9Z"/><path class="cls-1" d="M76.13,108.89a2.14,2.14,0,0,1,.66-1.57,2.24,2.24,0,0,1,1.6-.65,2.25,2.25,0,0,1,2.25,2.25A2.15,2.15,0,0,1,80,110.5a2.27,2.27,0,0,1-1.62.65,2.19,2.19,0,0,1-1.5-.58A2.13,2.13,0,0,1,76.13,108.89Zm.65,0a1.57,1.57,0,0,0,.48,1.18,1.62,1.62,0,0,0,2.26-2.33,1.52,1.52,0,0,0-1.13-.47,1.6,1.6,0,0,0-1.61,1.62Z"/><path class="cls-1" d="M82.93,109.23l1.33,1.84h-.79l-1.24-1.77h-.12v1.77h-.65v-4.32h.77a1.91,1.91,0,0,1,1.23.32,1.19,1.19,0,0,1,.42,1,1.27,1.27,0,0,1-.26.79A1.19,1.19,0,0,1,82.93,109.23Zm-.82-.5h.21c.62,0,.93-.23.93-.7s-.3-.67-.9-.67h-.24Z"/><path class="cls-1" d="M86.68,111.07v-4.32h.91a3.19,3.19,0,0,1,1,.13,1.77,1.77,0,0,1,.73.43,2.23,2.23,0,0,1,0,3.21,2,2,0,0,1-.74.43,3.35,3.35,0,0,1-1,.12Zm.65-.61h.3a2.55,2.55,0,0,0,.73-.09,1.41,1.41,0,0,0,.52-.32,1.62,1.62,0,0,0,0-2.29,1.78,1.78,0,0,0-1.26-.4h-.3Z"/><path class="cls-1" d="M93.23,107.36H91.49v1h1.69V109H91.49v1.45h1.74v.61H90.84v-4.32h2.39Z"/><path class="cls-1" d="M96.53,107.39l-.53.32a.94.94,0,0,0-.29-.34.73.73,0,0,0-.81.07.46.46,0,0,0-.18.38c0,.21.16.38.47.51l.43.17a1.79,1.79,0,0,1,.77.52,1.13,1.13,0,0,1,.25.75,1.35,1.35,0,0,1-.4,1,1.37,1.37,0,0,1-1,.39,1.32,1.32,0,0,1-.93-.33,1.58,1.58,0,0,1-.45-.94l.66-.15a1.2,1.2,0,0,0,.15.53.74.74,0,0,0,1.1.07.69.69,0,0,0,.2-.51.56.56,0,0,0,0-.23.54.54,0,0,0-.1-.2.83.83,0,0,0-.2-.16,1.77,1.77,0,0,0-.28-.15l-.41-.17a1.21,1.21,0,0,1-.89-1.1,1,1,0,0,1,.37-.81,1.36,1.36,0,0,1,.93-.33A1.3,1.3,0,0,1,96.53,107.39Z"/><path class="cls-1" d="M99.92,110H98.07l-.48,1h-.71L99,106.48l2.06,4.59h-.71Zm-.27-.61L99,107.94l-.67,1.47Z"/><path class="cls-1" d="M102.28,109.32v1.75h-.66v-4.32h.74a2.87,2.87,0,0,1,.82.08,1.13,1.13,0,0,1,.5.28,1.26,1.26,0,0,1,.37.92,1.18,1.18,0,0,1-.4.94,1.57,1.57,0,0,1-1.07.35Zm0-.61h.24q.9,0,.9-.69c0-.45-.31-.67-.93-.67h-.21Z"/><path class="cls-1" d="M106.94,110h-1.85l-.48,1h-.7l2.14-4.59,2.06,4.59h-.72Zm-.26-.61-.65-1.47-.67,1.47Z"/><path class="cls-1" d="M110.11,109.23l1.34,1.84h-.8l-1.23-1.77h-.12v1.77h-.65v-4.32h.76a1.94,1.94,0,0,1,1.24.32,1.19,1.19,0,0,1,.42,1,1.27,1.27,0,0,1-.26.79A1.18,1.18,0,0,1,110.11,109.23Zm-.81-.5h.21c.61,0,.92-.23.92-.7s-.3-.67-.9-.67h-.23Z"/><path class="cls-1" d="M114.48,107.36h-1.73v1h1.68V109h-1.68v1.45h1.73v.61H112.1v-4.32h2.38Z"/><path class="cls-1" d="M118.53,107v.77a1.82,1.82,0,0,0-1.17-.47,1.48,1.48,0,0,0-1.12.48,1.61,1.61,0,0,0-.46,1.16,1.55,1.55,0,0,0,.46,1.15,1.53,1.53,0,0,0,1.12.47,1.48,1.48,0,0,0,.59-.11l.28-.15c.09-.07.2-.14.3-.23v.78a2.34,2.34,0,0,1-1.17.32,2.16,2.16,0,0,1-1.58-.65,2.12,2.12,0,0,1-.66-1.57,2.24,2.24,0,0,1,.55-1.47,2.26,2.26,0,0,1,2.86-.48Z"/><path class="cls-1" d="M120,106.75v4.32h-.66v-4.32Z"/><path class="cls-1" d="M121.05,111.07v-4.32h.9a3.15,3.15,0,0,1,1,.13,1.8,1.8,0,0,1,.74.43,2.22,2.22,0,0,1,0,3.21,2,2,0,0,1-.73.43,3.37,3.37,0,0,1-1,.12Zm.65-.61H122a2.5,2.5,0,0,0,.73-.09,1.45,1.45,0,0,0,.53-.32,1.47,1.47,0,0,0,.48-1.14,1.49,1.49,0,0,0-.48-1.15,1.75,1.75,0,0,0-1.26-.4h-.29Z"/><path class="cls-1" d="M127.53,110h-1.85l-.48,1h-.7l2.14-4.59,2.06,4.59H128Zm-.26-.61-.65-1.47-.67,1.47Z"/><path class="cls-1" d="M131.68,107.39l-.53.32a.93.93,0,0,0-.28-.34.73.73,0,0,0-.81.07.46.46,0,0,0-.18.38c0,.21.16.38.47.51l.43.17a1.86,1.86,0,0,1,.77.52,1.18,1.18,0,0,1,.24.75,1.34,1.34,0,0,1-.39,1,1.38,1.38,0,0,1-1,.39,1.36,1.36,0,0,1-.93-.33,1.58,1.58,0,0,1-.45-.94l.66-.15a1.18,1.18,0,0,0,.16.53.67.67,0,0,0,.59.28.66.66,0,0,0,.5-.21.66.66,0,0,0,.21-.51.79.79,0,0,0,0-.23.56.56,0,0,0-.11-.2.77.77,0,0,0-.19-.16l-.28-.15-.42-.17a1.2,1.2,0,0,1-.88-1.1,1,1,0,0,1,.37-.81,1.35,1.35,0,0,1,.92-.33A1.3,1.3,0,0,1,131.68,107.39Z"/><circle class="cls-1" cx="70.99" cy="25.35" r="5.05"/><path class="cls-1" d="M71.13,44.07A.15.15,0,0,0,71,44a.15.15,0,0,0-.15.1s-3.9,12.65-3.9,12.65l.06,0a8.31,8.31,0,0,0,8,0l0,0Z"/><path class="cls-1" d="M63.82,36.92c-.37-6.84-3.54-12-9.66-15.08a115.63,115.63,0,0,0-10.79-4.25l-.45-.17c-2.75-1.05-5.57-1.94-8-3.74a5,5,0,0,0-.48-.33,1.19,1.19,0,0,0-.21-.1.59.59,0,0,0-.23,0c-.78,0-1.05,1-1.06,1.44a6.77,6.77,0,0,0,1.1,2.57,7.89,7.89,0,0,0,1.69,1.86l.19.14a3.28,3.28,0,0,0,.38.27,14.87,14.87,0,0,0,2.9,1.39l1.33.49c.42.16.86.3,1.26.46a1.41,1.41,0,0,1,.8.75,1.51,1.51,0,0,1,.09.47,1.12,1.12,0,0,1-.08.45c-.57,1.21-2.19,1.34-2.75,1.4-1.54.15-3.07.28-4.61.36a44.17,44.17,0,0,1-6.9-.13L27.62,25A29,29,0,0,1,17.43,22.1c-.3-.16-.59-.32-.87-.49-.48-.29-.95-.59-1.42-.89-.78-.51-1.56-1-2.36-1.5a1.75,1.75,0,0,0-1-.29,1.41,1.41,0,0,0-.76.3,1.37,1.37,0,0,0-.38,1.58,12.21,12.21,0,0,0,1.27,2.43,8.79,8.79,0,0,0,.8,1c.36.39.72.68,1.16,1.11A22,22,0,0,0,19,28.89a64.85,64.85,0,0,0,10.12,4c.58.2,1.17.39,1.75.57l2.94,1c3.25,1.09,6.58,2,9.73,3.29.58.25,1.15.51,1.71.79a28.56,28.56,0,0,1,5.09,3.32,43.88,43.88,0,0,1,7.29,7.78c1.17,1.55,2.25,3.17,3.49,4.93.28-1,.52-1.81.74-2.65A48.71,48.71,0,0,0,63.82,36.92Z"/><path class="cls-1" d="M35.62,37.46c-2.47-.75-5-1.46-7.45-2.2h0c-1.93-.58-3.85-1.19-5.74-1.86-4.16-1.48-7.59-4.22-10.79-7.22L11.45,26a.76.76,0,0,0-.21-.14.81.81,0,0,0-.31-.06.83.83,0,0,0-.79.58.93.93,0,0,0,0,.24c0,.07,0,.25,0,.28a12.17,12.17,0,0,0,.44,1.37,12.8,12.8,0,0,0,6.28,6.94A18.85,18.85,0,0,0,21.27,37a31.41,31.41,0,0,0,4.91.76,83,83,0,0,0,11.24.22C36.65,37.74,36.13,37.61,35.62,37.46Z"/><path class="cls-1" d="M23.85,39.25c-4.26-.77-8.25-2.2-11.5-5.35a.94.94,0,0,0-.19-.14.78.78,0,0,0-.22-.12.66.66,0,0,0-.81.47.36.36,0,0,0,0,.1,1.45,1.45,0,0,0,.05.3,2.78,2.78,0,0,0,.21.5,10.67,10.67,0,0,0,.72,1.16,9.39,9.39,0,0,0,.86,1,9.25,9.25,0,0,0,1,.89,8.38,8.38,0,0,0,1.11.76,9.2,9.2,0,0,0,1.22.6,9.81,9.81,0,0,0,1.3.41l.33.07.3.09.64.15c.43.08.86.15,1.29.19s.88.07,1.31.08.9,0,1.34,0,.9-.08,1.35-.14,1.79-.33,2-.38l.62-.15S24.44,39.36,23.85,39.25Z"/><path class="cls-1" d="M41.4,67.85v9.88q0,.8.06,1.62a4.46,4.46,0,0,0,.36,1.51,2.5,2.5,0,0,0,1,1.09,3.26,3.26,0,0,0,1.83.43A3.22,3.22,0,0,0,46.42,82a2.56,2.56,0,0,0,.95-1.09,4.24,4.24,0,0,0,.37-1.51q.06-.82.06-1.62V67.85h4.7V78.38c0,2.82-.65,4.89-1.94,6.19s-3.28,2-6,2-4.67-.65-6-2-2-3.37-2-6.19V67.85Z"/><path class="cls-1" d="M56.31,67.88s3.89-.09,8.82.08c1.94.07,4.6,1.38,4.27,4.41a3.72,3.72,0,0,1-3,3.84,5.67,5.67,0,0,1,1.73.6A3.63,3.63,0,0,1,70,79.11a6.06,6.06,0,0,1,.19,1.56A5.51,5.51,0,0,1,69.71,83a4.81,4.81,0,0,1-1.25,1.69,5.5,5.5,0,0,1-2,1,9.05,9.05,0,0,1-2.6.34H56.31Zm4.72,7,2.43,0c.91,0,1.42-1.2,1.42-1.74,0-1.19-.61-1.69-1.42-1.73-1,0-2.43-.07-2.43-.07Zm0,7.56,3,0c1.11,0,1.74-1.33,1.74-1.92A1.7,1.7,0,0,0,64,78.53c-1.19-.06-3-.07-3-.07Z"/><path class="cls-1" d="M77.69,86H73V67.85h7.51a6.43,6.43,0,0,1,4.69,1.59,7,7,0,0,1,0,9A6.43,6.43,0,0,1,80.48,80H77.69Zm0-9.82h1.57c1.73,0,2.6-.76,2.6-2.27s-.87-2.26-2.6-2.26H77.69Z"/><path class="cls-1" d="M89.3,67.85h7a8.18,8.18,0,0,1,3.48.75,9.38,9.38,0,0,1,2.84,2,9.07,9.07,0,0,1,1.92,2.89,8.86,8.86,0,0,1,0,6.88,9.33,9.33,0,0,1-1.9,2.91,9.54,9.54,0,0,1-2.84,2,8.43,8.43,0,0,1-3.51.74h-7ZM94,82H95.1a5.78,5.78,0,0,0,2.19-.38,4.65,4.65,0,0,0,1.63-1.06,4.5,4.5,0,0,0,1-1.6,5.82,5.82,0,0,0,.35-2,5.61,5.61,0,0,0-.36-2,4.61,4.61,0,0,0-1-1.61,4.69,4.69,0,0,0-1.63-1.06,5.71,5.71,0,0,0-2.17-.39H94Z"/><path class="cls-1" d="M78.12,36.92c.38-6.84,3.54-12,9.66-15.08a114.73,114.73,0,0,1,10.8-4.25l.44-.17c2.75-1.05,5.58-1.94,8-3.74.14-.1.31-.23.48-.33a1.19,1.19,0,0,1,.21-.1.67.67,0,0,1,.24,0c.78,0,1,1,1.06,1.44a6.77,6.77,0,0,1-1.1,2.57,8.16,8.16,0,0,1-1.7,1.86,1.33,1.33,0,0,1-.19.14,2.6,2.6,0,0,1-.38.27,14.87,14.87,0,0,1-2.9,1.39l-1.33.49c-.42.16-.86.3-1.25.46a1.35,1.35,0,0,0-.8.75,1.27,1.27,0,0,0-.09.47,1.12,1.12,0,0,0,.08.45c.56,1.21,2.18,1.34,2.75,1.4,1.53.15,3.07.28,4.61.36a44.22,44.22,0,0,0,6.9-.13l.75-.09a29,29,0,0,0,10.19-2.94l.87-.49c.48-.29,1-.59,1.42-.89.77-.51,1.56-1,2.35-1.5a1.81,1.81,0,0,1,1-.29,1.38,1.38,0,0,1,.75.3,1.34,1.34,0,0,1,.38,1.58A12.17,12.17,0,0,1,130,23.24a10.1,10.1,0,0,1-.8,1c-.37.39-.72.68-1.16,1.11A22.21,22.21,0,0,1,123,28.89a65,65,0,0,1-10.13,4c-.58.2-1.16.39-1.75.57l-2.94,1c-3.25,1.09-6.58,2-9.72,3.29-.59.25-1.16.51-1.71.79a28.2,28.2,0,0,0-5.09,3.32,43.51,43.51,0,0,0-7.29,7.78c-1.17,1.55-2.26,3.17-3.5,4.93-.27-1-.52-1.81-.74-2.65A48.71,48.71,0,0,1,78.12,36.92Z"/><path class="cls-1" d="M106.32,37.46c2.48-.75,5-1.46,7.46-2.2h0c1.92-.58,3.84-1.19,5.74-1.86,4.16-1.48,7.58-4.22,10.79-7.22l.18-.17a1,1,0,0,1,.21-.14.87.87,0,0,1,.32-.06.81.81,0,0,1,.78.58.64.64,0,0,1,0,.24,1.84,1.84,0,0,1,0,.28,12.13,12.13,0,0,1-.43,1.37,12.66,12.66,0,0,1-2.32,3.87,12.84,12.84,0,0,1-4,3.07A18.77,18.77,0,0,1,120.68,37a31.55,31.55,0,0,1-4.92.76,83,83,0,0,1-11.24.22C105.3,37.74,105.81,37.61,106.32,37.46Z"/><path class="cls-1" d="M118.1,39.25c4.26-.77,8.24-2.2,11.5-5.35a.72.72,0,0,1,.19-.14.88.88,0,0,1,.21-.12.67.67,0,0,1,.82.47.34.34,0,0,1,0,.1.76.76,0,0,1-.05.3,1.83,1.83,0,0,1-.21.5,10.59,10.59,0,0,1-.71,1.16,10.76,10.76,0,0,1-.87,1,8.28,8.28,0,0,1-1,.89,8.48,8.48,0,0,1-1.12.76,9.2,9.2,0,0,1-1.22.6,9.67,9.67,0,0,1-1.29.41l-.33.07-.31.09-.63.15c-.43.08-.86.15-1.3.19s-.87.07-1.31.08-.89,0-1.33,0-.91-.08-1.36-.14-1.79-.33-2-.38l-.63-.15S117.5,39.36,118.1,39.25Z"/><rect class="cls-2" width="141.9" height="121.14"/></g></g></svg>