<?xml version="1.0" encoding="utf-8"?>
<!-- Generator: Adobe Illustrator 24.1.2, SVG Export Plug-In . SVG Version: 6.00 Build 0)  -->
<svg version="1.1" xmlns="http://www.w3.org/2000/svg" xmlns:xlink="http://www.w3.org/1999/xlink" x="0px" y="0px"
	 viewBox="0 0 512 512" style="enable-background:new 0 0 512 512;" xml:space="preserve">
<style type="text/css">
	.st0{fill:#FFFFFF;}
	.st1{fill:#069169;}
</style>
<g id="Capa_2">
	<rect x="90" y="122" class="st0" width="327" height="254"/>
</g>
<g id="Capa_1">
	<g>
		<g>
			<path class="st1" d="M437,75C388.7,26.6,324.4,0,256,0S123.3,26.6,75,75C26.6,123.3,0,187.6,0,256s26.6,132.7,75,181
				c48.4,48.4,112.6,75,181,75s132.7-26.6,181-75c48.4-48.4,75-112.6,75-181S485.4,123.3,437,75z M135.7,155.8h240.6
				c8.5,0,15.4,6.9,15.4,15.4s-6.9,15.4-15.4,15.4H135.7c-8.5,0-15.4-6.9-15.4-15.4C120.3,162.7,127.2,155.8,135.7,155.8z
				 M376.3,356.2H135.7c-8.5,0-15.4-6.9-15.4-15.4s6.9-15.4,15.4-15.4h240.6c8.5,0,15.4,6.9,15.4,15.4S384.8,356.2,376.3,356.2z
				 M396.9,271.4H115.1c-8.5,0-15.4-6.9-15.4-15.4s6.9-15.4,15.4-15.4h281.7c8.5,0,15.4,6.9,15.4,15.4
				C412.3,264.5,405.4,271.4,396.9,271.4z"/>
		</g>
	</g>
</g>
</svg>
