<?xml version="1.0" encoding="utf-8"?>
<!-- Generator: Adobe Illustrator 24.1.2, SVG Export Plug-In . SVG Version: 6.00 Build 0)  -->
<svg version="1.1" id="Capa_1" xmlns="http://www.w3.org/2000/svg" xmlns:xlink="http://www.w3.org/1999/xlink" x="0px" y="0px"
	 viewBox="0 0 53 53" style="enable-background:new 0 0 53 53;" xml:space="preserve">
<style type="text/css">
	.st0{fill:#173642;}
</style>
<g id="Capa_2_1_">
	<g id="Capa_1-2">
		<path class="st0" d="M25.4,13.6v-3.2c-2.4-0.7-3.9-3.1-3.2-5.6c0.2-0.8,0.6-1.5,1.2-2l0,0C25.2,1,28,1,29.8,2.8c0,0,0,0,0,0l0,0
			c1.8,1.8,1.8,4.6,0,6.4c-0.6,0.6-1.4,1-2.2,1.2v3.1h-0.1l-0.4-0.1h-0.6c-0.1,0-0.3,0-0.4,0c-0.1,0-0.2,0-0.3,0.1
			C25.7,13.5,25.6,13.5,25.4,13.6C25.4,13.6,25.4,13.6,25.4,13.6z M18.1,20.7l8.3-4.6h0.1c0.1,0,0.2,0,0.3,0H27c0.1,0,0.1,0,0.2,0.1
			l8.2,4.7c0.2,0.1,0.4,0.2,0.5,0.4c0.1,0.2,0.1,0.3,0.1,0.5v9.5c0,0.3-0.2,0.6-0.5,0.7l-8.2,4.8L27,37c-0.2,0-0.3,0-0.5,0
			c-0.1,0-0.2-0.1-0.2-0.1L17.9,32c-0.3-0.2-0.4-0.4-0.5-0.7v-9.6C17.4,21.2,17.7,20.8,18.1,20.7L18.1,20.7z M25.9,34.5v-7.5
			l-6.6-3.9v7.6L25.9,34.5z M34.1,23.2l-6.4,3.8v7.5l6.4-3.8L34.1,23.2z M26.8,18l-6.3,3.7l6.3,3.8l6.1-3.7L26.8,18z M27.7,42.7
			c0.8,0.2,1.5,0.6,2.1,1.2l0,0c1.8,1.8,1.8,4.6,0,6.4l0,0c-1.8,1.8-4.6,1.8-6.4,0c0,0,0,0,0,0l0,0c-1.8-1.8-1.8-4.6,0-6.4l0,0
			c0.6-0.6,1.3-1,2.1-1.2v-3.2l0.3,0.1l0,0H26l0.3,0.1c0.2,0,0.3,0,0.5,0c0.2,0,0.3,0,0.5,0c0.1,0,0.3,0,0.4-0.1L27.7,42.7
			L27.7,42.7z M28.3,45.4c-0.9-0.9-2.4-0.9-3.3,0l0,0c-0.9,0.9-0.9,2.4,0,3.3l0,0c0.9,0.9,2.4,0.9,3.3,0l0,0
			C29.2,47.8,29.2,46.3,28.3,45.4L28.3,45.4z M28.3,4.3c-0.9-0.9-2.4-0.9-3.3,0l0,0c-0.9,0.9-0.9,2.4,0,3.3c0.9,0.9,2.4,0.9,3.3,0
			c0.4-0.4,0.7-1,0.7-1.7C29,5.3,28.7,4.7,28.3,4.3L28.3,4.3z M44.5,32.2c1.2,0,2.4,0.5,3.2,1.4l0,0c1.8,1.8,1.8,4.6,0,6.4l0,0
			c-1.8,1.8-4.6,1.8-6.4,0c-1.2-1.2-1.6-2.9-1.1-4.6L37.5,34c0.2-0.2,0.4-0.5,0.6-0.7c0.1-0.1,0.1-0.3,0.2-0.4
			c0.1-0.1,0.1-0.3,0.2-0.4c0-0.1,0.1-0.2,0.1-0.4l2.7,1.6l0,0C42.1,32.7,43.2,32.3,44.5,32.2L44.5,32.2z M46.2,35.1
			c-0.9-0.9-2.4-0.9-3.3,0s-0.9,2.4,0,3.3c0.9,0.9,2.4,0.9,3.3,0l0,0C47.1,37.5,47.1,36,46.2,35.1L46.2,35.1z M8.8,32.2
			c1.2,0,2.3,0.5,3.2,1.3l2.8-1.6V32l0.1,0.3c0.1,0.2,0.1,0.3,0.2,0.5c0,0.1,0.1,0.2,0.2,0.3c0.2,0.3,0.4,0.5,0.6,0.7l0,0l-2.7,1.6
			c0.8,2.4-0.4,5-2.8,5.8c-1.7,0.6-3.6,0.2-4.8-1.1l0,0c-1.8-1.8-1.8-4.6,0-6.4C6.4,32.7,7.6,32.2,8.8,32.2z M10.5,35.1
			c-0.9-0.9-2.4-1-3.3-0.1c-0.9,0.9-1,2.4-0.1,3.3c0,0,0,0,0.1,0.1l0,0c0.9,0.9,2.4,0.9,3.3,0C11.4,37.5,11.4,36,10.5,35.1
			L10.5,35.1L10.5,35.1z M44.5,11.7c2.5,0,4.5,2,4.5,4.6c0,1.2-0.5,2.4-1.3,3.2l0,0c-1.8,1.8-4.6,1.8-6.4,0l0,0l-0.1,0L38.5,21
			c-0.1-0.3-0.2-0.7-0.4-0.9c-0.2-0.4-0.4-0.7-0.7-0.9l2.7-1.6c-0.5-1.6,0-3.3,1.2-4.5l0,0C42.1,12.2,43.3,11.7,44.5,11.7L44.5,11.7
			z M46.2,14.5c-0.9-0.9-2.4-0.9-3.3,0l0,0c-0.9,1-0.8,2.5,0.2,3.3c0.9,0.8,2.3,0.8,3.2,0l0,0C47.1,17,47.1,15.5,46.2,14.5
			C46.2,14.5,46.2,14.5,46.2,14.5z M8.8,11.7c1.2,0,2.4,0.5,3.2,1.3l0,0c0.9,0.8,1.3,2,1.3,3.2c0,0.4,0,0.7-0.1,1.1l2.7,1.6
			c-0.1,0.1-0.2,0.2-0.3,0.3c-0.2,0.3-0.4,0.5-0.5,0.8L15,20.4l-0.1,0.4l-2.6-1.6c-0.1,0.1-0.1,0.2-0.2,0.2
			c-1.6,1.9-4.5,2.2-6.4,0.5s-2.2-4.5-0.5-6.4c0.1-0.1,0.1-0.1,0.2-0.2c0.1-0.1,0.2-0.2,0.3-0.3l0,0C6.5,12.2,7.6,11.7,8.8,11.7
			L8.8,11.7z M10.5,14.5c-0.9-0.9-2.4-0.9-3.3,0l0,0c-0.9,0.9-0.9,2.4,0,3.3c0.9,0.9,2.4,0.9,3.3,0c0.4-0.4,0.7-1,0.7-1.7
			C11.2,15.6,11,15,10.5,14.5L10.5,14.5z"/>
	</g>
</g>
</svg>
