<svg xmlns="http://www.w3.org/2000/svg" viewBox="0 0 47.47 53.05"><defs><style>.cls-1{fill:#173642;}</style></defs><g id="Capa_2" data-name="Capa 2"><g id="Capa_1-2" data-name="Capa 1"><path class="cls-1" d="M22.54,12.85V9.45a4.81,4.81,0,0,1-3.4-5.88,4.63,4.63,0,0,1,1.25-2.16h0a4.77,4.77,0,0,1,6.76,0h0a4.8,4.8,0,0,1-2.32,8.08v3.23l-.08,0-.39-.08h-.6a2.09,2.09,0,0,0-.43,0,1.8,1.8,0,0,0-.35.07,3.73,3.73,0,0,0-.44.14h0ZM14.77,20.4l8.75-4.89.11,0a.9.9,0,0,1,.28,0l.24,0a.34.34,0,0,1,.19.09l8.66,5a.88.88,0,0,1,.48.43,1.1,1.1,0,0,1,.13.56V31.65a1,1,0,0,1-.51.79L24.4,37.5l-.2.08a1,1,0,0,1-.53,0,.88.88,0,0,1-.24-.11l-8.9-5.18a1,1,0,0,1-.5-.78V21.35a1,1,0,0,1,.73-1ZM23,35V27.09l-7-4.16v8L23,35Zm8.71-11.95L24.91,27.1V35l6.77-4Zm-7.77-5.58L17.3,21.41l6.64,4,6.44-3.89Zm1,26.12a4.82,4.82,0,0,1,2.25,1.27h0a4.79,4.79,0,0,1,0,6.77h0a4.78,4.78,0,0,1-6.77,0h0a4.79,4.79,0,0,1,0-6.77h0a4.79,4.79,0,0,1,2.24-1.27V40.23l.28.1h0l.17,0,.33.07a4.89,4.89,0,0,0,.55.05,4.93,4.93,0,0,0,.54-.05,2.07,2.07,0,0,0,.43-.1v3.25Zm.62,2.9a2.5,2.5,0,0,0-3.53,0h0A2.52,2.52,0,0,0,22,50h0a2.5,2.5,0,0,0,3.53,0h0A2.49,2.49,0,0,0,25.53,46.49ZM25.53,3A2.5,2.5,0,0,0,22,3h0a2.5,2.5,0,1,0,4.27,1.76A2.48,2.48,0,0,0,25.54,3ZM42.66,32.56A4.81,4.81,0,0,1,46.06,34h0a4.8,4.8,0,0,1,0,6.77h0a4.8,4.8,0,0,1-8-4.78l-2.81-1.62a3.61,3.61,0,0,0,.62-.78,3.48,3.48,0,0,0,.22-.43,2.26,2.26,0,0,0,.17-.43c0-.13.07-.26.1-.4L39.24,34l0,0a4.8,4.8,0,0,1,3.39-1.41Zm1.77,3a2.5,2.5,0,1,0,0,3.55h0a2.52,2.52,0,0,0,0-3.54ZM5,32.56a4.82,4.82,0,0,1,3.34,1.36l2.95-1.73,0,.1.07.27a3.11,3.11,0,0,0,.21.5,1.54,1.54,0,0,0,.17.34,3.81,3.81,0,0,0,.62.77l0,0L9.54,35.84a4.8,4.8,0,0,1-8,4.92h0A4.8,4.8,0,0,1,5,32.56Zm1.76,3a2.5,2.5,0,1,0-3.53,3.54h0a2.5,2.5,0,0,0,3.54-3.54ZM42.66,10.84a4.81,4.81,0,0,1,3.4,8.21h0a4.81,4.81,0,0,1-6.79,0h0L39.21,19l-2.86,1.64a3.45,3.45,0,0,0-.4-1,3.63,3.63,0,0,0-.74-1L38.05,17a4.78,4.78,0,0,1,1.22-4.75h0a4.73,4.73,0,0,1,3.39-1.4Zm1.77,3a2.5,2.5,0,0,0-3.53,0h0a2.5,2.5,0,0,0,3.53,3.53h0a2.49,2.49,0,0,0,0-3.53ZM5,10.84a4.76,4.76,0,0,1,3.39,1.41h0a4.76,4.76,0,0,1,1.41,3.39,5.36,5.36,0,0,1-.13,1.13l2.84,1.73a3.06,3.06,0,0,0-.36.36,3.68,3.68,0,0,0-.58.89l-.11.26-.14.43L8.58,18.79a1.51,1.51,0,0,1-.21.23,4.8,4.8,0,1,1-7.14-6.41,3.85,3.85,0,0,1,.35-.35h0A4.76,4.76,0,0,1,5,10.85Zm1.76,3a2.5,2.5,0,0,0-3.53,0h0a2.5,2.5,0,1,0,4.27,1.76,2.5,2.5,0,0,0-.72-1.76Z"/></g></g></svg>