<?xml version="1.0" encoding="utf-8"?>
<!-- Generator: Adobe Illustrator 24.1.2, SVG Export Plug-In . SVG Version: 6.00 Build 0)  -->
<svg version="1.1" id="Capa_1" xmlns="http://www.w3.org/2000/svg" xmlns:xlink="http://www.w3.org/1999/xlink" x="0px" y="0px"
	 viewBox="0 0 59.8 59.8" style="enable-background:new 0 0 59.8 59.8;" xml:space="preserve">
<style type="text/css">
	.st0{fill:#4285F4;}
	.st1{fill:#34A853;}
	.st2{fill:#FBBC04;}
	.st3{fill-rule:evenodd;clip-rule:evenodd;fill:#EA4335;}
	.st4{fill:#C5221F;}
</style>
<g id="Capa_2_1_">
	<g id="Capa_1-2">
		<path class="st0" d="M7,49.8h8.4V29.3l-12.1-9v25.9C3.4,48.2,5,49.8,7,49.8z"/>
		<path class="st1" d="M44.4,49.8h8.4c2,0,3.6-1.6,3.6-3.6c0,0,0,0,0,0V20.3l-12,9L44.4,49.8L44.4,49.8z"/>
		<path class="st2" d="M44.4,13.7v15.7l12-9v-4.8c0-3-2.4-5.4-5.4-5.4c-1.2,0-2.3,0.4-3.2,1.1L44.4,13.7z"/>
		<path class="st3" d="M15.4,29.3V13.7l14.4,10.9l14.4-10.9v15.7L29.9,40.2L15.4,29.3z"/>
		<path class="st4" d="M3.4,15.4v4.8l12,9V13.7L12,11.1c-2.4-1.8-5.8-1.3-7.6,1.1C3.8,13.2,3.4,14.3,3.4,15.4z"/>
	</g>
</g>
</svg>
