<svg xmlns="http://www.w3.org/2000/svg" viewBox="0 0 59.84 44.82"><defs><style>.cls-1{fill:#4285f4;}.cls-2{fill:#34a853;}.cls-3{fill:#fbbc04;}.cls-4{fill:#ea4335;fill-rule:evenodd;}.cls-5{fill:#c5221f;}</style></defs><g id="Capa_2" data-name="Capa 2"><g id="Capa_1-2" data-name="Capa 1"><path class="cls-1" d="M4.1,44.82h9.53V21.72L0,11.58v29.2A4.08,4.08,0,0,0,4.1,44.82Z"/><path class="cls-2" d="M46.21,44.82h9.53a4.09,4.09,0,0,0,4.1-4.1V11.58L46.27,21.77V44.82Z"/><path class="cls-3" d="M46.21,4.1V21.77L59.78,11.58V6.15A6.11,6.11,0,0,0,50,1.27Z"/><path class="cls-4" d="M13.57,21.72V4.1L29.86,16.34,46.15,4.1V21.77L29.92,34Z"/><path class="cls-5" d="M0,6.09v5.43l13.57,10.2V4.1L9.75,1.21A6.11,6.11,0,0,0,0,6.09Z"/></g></g></svg>