<svg xmlns="http://www.w3.org/2000/svg" viewBox="0 0 119.9 119.9"><defs><style>.cls-1{fill:#fff;}</style></defs><g id="Capa_2" data-name="Capa 2"><g id="Capa_1-2" data-name="Capa 1"><g id="Capa_1-3" data-name="Capa 1"><path class="cls-1" d="M102.34,17.56a59.94,59.94,0,0,0-84.78,0A60,60,0,0,0,60,119.9,60,60,0,0,0,119.9,60,59.49,59.49,0,0,0,102.34,17.56ZM31.78,36.49H88.12a3.61,3.61,0,1,1,0,7.21H31.78a3.61,3.61,0,1,1,0-7.21ZM88.12,83.41H31.78a3.61,3.61,0,1,1,0-7.21H88.12a3.61,3.61,0,1,1,0,7.21ZM93,63.56H27a3.61,3.61,0,0,1,0-7.22h66A3.61,3.61,0,0,1,96.53,60,3.58,3.58,0,0,1,93,63.56Z"/></g></g></g></svg>