<svg xmlns="http://www.w3.org/2000/svg" viewBox="0 0 42 42"><defs><style>.cls-1{fill:#59939a;}.cls-2{fill:#fff;fill-rule:evenodd;}</style></defs><g id="Capa_2" data-name="Capa 2"><g id="Capa_1-2" data-name="Capa 1"><circle class="cls-1" cx="21" cy="21" r="21"/><path class="cls-2" d="M26.44,8.73a1.35,1.35,0,0,0-1.85,0L13.82,19.2a2.45,2.45,0,0,0-.08,3.48l.09.09L24.75,33.24a1.35,1.35,0,0,0,1.84,0,1.23,1.23,0,0,0,.06-1.74l-.06-.06-10-9.58a1.22,1.22,0,0,1-.05-1.74l0-.05,9.86-9.57a1.23,1.23,0,0,0,0-1.74l0,0"/></g></g></svg>