<svg xmlns="http://www.w3.org/2000/svg" viewBox="0 0 42.4 40.41"><defs><style>.cls-1{fill:#fff;}</style></defs><g id="Capa_2" data-name="Capa 2"><g id="Capa_1-2" data-name="Capa 1"><path class="cls-1" d="M42,14.64a.66.66,0,0,0-.7.08l-9.73,7.79L24,21.92,25,21a22.64,22.64,0,0,0,2-2,2.14,2.14,0,0,0,.32-2.53,2.06,2.06,0,0,0-1.76-.92,2.32,2.32,0,0,0-1.42.48L15.6,21.26l-.85-.06a6.35,6.35,0,0,0-4.22,1.6L4.2,28.43a.66.66,0,1,0,.88,1l6.33-5.63a5,5,0,0,1,3.29-1.27l5.15.4,2.61.26h.06a.59.59,0,0,0,.19-.05l9,.71a.66.66,0,0,0,.46-.15l8.86-7.09v2.31l-9.53,8.9h-15a.66.66,0,0,0-.52.26L7.42,39.34a.67.67,0,0,0,.13.93.61.61,0,0,0,.4.14.67.67,0,0,0,.53-.26l8.41-11H31.8a.67.67,0,0,0,.45-.18l9.94-9.27a.71.71,0,0,0,.21-.49v-4A.66.66,0,0,0,42,14.64ZM17.92,21.4l6.94-4.27.06-.05a1,1,0,0,1,.63-.22.74.74,0,0,1,.63.3.83.83,0,0,1-.2,1,21.54,21.54,0,0,1-1.92,1.92c-.67.62-1.3,1.21-1.77,1.73L20,21.61Z"/><path class="cls-1" d="M.66,33.12A.65.65,0,0,0,1.1,33l2-1.77a.66.66,0,1,0-.88-1L.22,32a.65.65,0,0,0,0,.93A.64.64,0,0,0,.66,33.12Z"/><path class="cls-1" d="M17.22,5.3a2,2,0,1,0,2-2A2,2,0,0,0,17.22,5.3Zm2.65,0a.66.66,0,1,1-.66-.66A.66.66,0,0,1,19.87,5.3Z"/><path class="cls-1" d="M16.56,19.21a.66.66,0,0,0,.66-.66V8a.68.68,0,0,0-.14-.41L12.81,2l.91-.91a.66.66,0,0,0,0-.94.68.68,0,0,0-.94,0L11.46,1.52a.66.66,0,0,0-.06.87l4.5,5.79V18.55A.67.67,0,0,0,16.56,19.21Z"/><path class="cls-1" d="M31.14,7.29a2,2,0,1,0-2-2A2,2,0,0,0,31.14,7.29Zm0-2.65a.66.66,0,0,1,0,1.32.66.66,0,1,1,0-1.32Z"/><path class="cls-1" d="M28.49,21.2a.67.67,0,0,0,.66-.66V8A.68.68,0,0,0,29,7.54L27.05,5l1.24-1.24a.66.66,0,0,0,0-.94L27,1.52a.66.66,0,0,0-.94,0l-1,1L24.73,2l.91-.91a.66.66,0,0,0,0-.94.68.68,0,0,0-.94,0L23.38,1.52a.65.65,0,0,0-.05.87l.8,1L22.06,5.49a.66.66,0,0,0,0,.94.65.65,0,0,0,.93,0L26.5,2.92l.39.39L20.73,9.47a.67.67,0,0,0-.19.47v6a.66.66,0,1,0,1.32,0V10.21L26.1,6l1.72,2.21V20.54A.67.67,0,0,0,28.49,21.2Z"/><path class="cls-1" d="M33.79,10.21l6.43-6.43a.68.68,0,0,0,0-.94L38.89,1.52a.66.66,0,0,0-.94,0l-4,4a.66.66,0,0,0,.94.94l3.5-3.51.39.39L32.65,9.47a.67.67,0,0,0-.19.47v6a.67.67,0,0,0,1.33,0Z"/><path class="cls-1" d="M33.12,19.87a.66.66,0,0,0,.67-.66V17.89a.67.67,0,1,0-1.33,0v1.32A.66.66,0,0,0,33.12,19.87Z"/></g></g></svg>