<svg xmlns="http://www.w3.org/2000/svg" xmlns:xlink="http://www.w3.org/1999/xlink" viewBox="0 0 100.83 100.83"><defs><style>.cls-1{fill:none;}.cls-2{fill:#29205e;}.cls-3{fill:#fff;}.cls-4{clip-path:url(#clip-path);}.cls-5{clip-path:url(#clip-path-2);}.cls-6{fill:url(#Degradado_sin_nombre_2);}.cls-7{fill:url(#Degradado_sin_nombre_56);}.cls-8{fill:url(#Degradado_sin_nombre_56-2);}.cls-9{stroke:#fff;stroke-miterlimit:10;stroke-width:9px;fill:url(#Degradado_sin_nombre_2-2);}</style><clipPath id="clip-path" transform="translate(21.96 17.32)"><path id="SVGID" class="cls-1" d="M58.83,43.62C55.86,42,1.22,20.34,1.22,20.34L11.14,0,51.28,2.66Z"/></clipPath><clipPath id="clip-path-2" transform="translate(21.96 17.32)"><path id="SVGID-2" data-name="SVGID" class="cls-1" d="M8.66,33.1a19.8,19.8,0,1,1,19.8,19.79A19.81,19.81,0,0,1,8.66,33.1m-5.41,0A25.21,25.21,0,1,0,28.46,7.89,25.21,25.21,0,0,0,3.25,33.1"/></clipPath><linearGradient id="Degradado_sin_nombre_2" x1="736.22" y1="-2626.52" x2="736.5" y2="-2626.52" gradientTransform="matrix(0, -167.94, -167.94, 0, -441067.5, 123701.54)" gradientUnits="userSpaceOnUse"><stop offset="0" stop-color="#b3b3e1"/><stop offset="0" stop-color="#b3b3e1"/><stop offset="0.21" stop-color="#9e9aca"/><stop offset="0.54" stop-color="#7f77a9"/><stop offset="0.82" stop-color="#6d6294"/><stop offset="1" stop-color="#665a8d"/></linearGradient><linearGradient id="Degradado_sin_nombre_56" x1="3.24" y1="44.25" x2="48.64" y2="44.25" gradientUnits="userSpaceOnUse"><stop offset="0.49" stop-color="#6ba6ac"/><stop offset="0.94" stop-color="#538185"/></linearGradient><linearGradient id="Degradado_sin_nombre_56-2" x1="1.22" y1="24.31" x2="13.25" y2="24.31" xlink:href="#Degradado_sin_nombre_56"/><linearGradient id="Degradado_sin_nombre_2-2" x1="44.06" y1="40.29" x2="56.1" y2="40.29" gradientTransform="matrix(1, 0, 0, 1, 0, 0)" xlink:href="#Degradado_sin_nombre_2"/></defs><g id="Capa_2" data-name="Capa 2"><g id="Capa_1-2" data-name="Capa 1"><path class="cls-2" d="M14.36,33.1A14.1,14.1,0,1,0,28.46,19,14.1,14.1,0,0,0,14.36,33.1" transform="translate(21.96 17.32)"/><path class="cls-3" d="M23.27,29.49a5.19,5.19,0,1,1,5.19,5.19,5.18,5.18,0,0,1-5.19-5.19" transform="translate(21.96 17.32)"/><path class="cls-3" d="M20.47,42.66a8,8,0,1,1,8,8,8,8,0,0,1-8-8" transform="translate(21.96 17.32)"/><g class="cls-4"><g class="cls-5"><rect class="cls-6" x="-7.19" y="-2.55" width="71.3" height="71.3" transform="translate(6.89 47.14) rotate(-45)"/></g></g><path class="cls-7" d="M28.28,58.38A23.91,23.91,0,0,1,25,58.16a25,25,0,0,1-21.56-28l5.62.73A19.34,19.34,0,0,0,44,44.57l4.62,3.3A25,25,0,0,1,28.28,58.38Z" transform="translate(21.96 17.32)"/><path class="cls-8" d="M11.49,20.05a6,6,0,1,1-8.51,0A6,6,0,0,1,11.49,20.05Z" transform="translate(21.96 17.32)"/><path class="cls-3" d="M7.24,31.55a7.24,7.24,0,1,1,5.11-2.12A7.22,7.22,0,0,1,7.24,31.55Zm0-12a4.8,4.8,0,1,0,3.39,1.4A4.79,4.79,0,0,0,7.24,19.51Z" transform="translate(21.96 17.32)"/><path class="cls-9" d="M54.34,36a6,6,0,1,1-8.52,0A6,6,0,0,1,54.34,36Z" transform="translate(21.96 17.32)"/></g></g></svg>