<svg xmlns="http://www.w3.org/2000/svg" viewBox="0 0 403.76 66.87"><defs><style>.cls-1{fill:#fff;}</style></defs><g id="Capa_2" data-name="Capa 2"><g id="Capa_1-2" data-name="Capa 1"><path class="cls-1" d="M125.86,13.13V23.21a5.58,5.58,0,0,0,.7,3.16,3.77,3.77,0,0,0,5.93,0,5.46,5.46,0,0,0,.71-3.16V13.13h2.53V23.91a6,6,0,0,1-1.66,4.36,6.2,6.2,0,0,1-10.74-4.36V13.13Z"/><polygon class="cls-1" points="139.74 29.87 139.74 11.99 151.94 24.76 151.94 13.13 154.47 13.13 154.47 30.89 142.26 18.15 142.26 29.87 139.74 29.87"/><rect class="cls-1" x="158.48" y="13.13" width="2.53" height="16.74"/><path class="cls-1" d="M165,29.87V13.13h3.51a12.8,12.8,0,0,1,4,.5,7.48,7.48,0,0,1,2.86,1.66A8,8,0,0,1,178,21.5a8,8,0,0,1-2.7,6.25,8.16,8.16,0,0,1-2.84,1.66,13.36,13.36,0,0,1-3.94.46Zm2.53-2.37h1.14a9.51,9.51,0,0,0,2.83-.36,5.9,5.9,0,0,0,2-1.2,5.73,5.73,0,0,0,1.87-4.44A5.86,5.86,0,0,0,173.59,17a7,7,0,0,0-4.89-1.53h-1.14Z"/><path class="cls-1" d="M190.16,25.8H183l-1.87,4.07h-2.72l8.29-17.79,8,17.79h-2.76Zm-1-2.37-2.48-5.69-2.6,5.69Z"/><path class="cls-1" d="M196.78,29.87V13.13h3.51a12.85,12.85,0,0,1,4,.5,7.37,7.37,0,0,1,2.85,1.66,8,8,0,0,1,2.59,6.21,8,8,0,0,1-2.7,6.25,8.07,8.07,0,0,1-2.84,1.66,13.29,13.29,0,0,1-3.93.46Zm2.52-2.37h1.14a9.41,9.41,0,0,0,2.83-.36,6,6,0,0,0,2-1.2,5.76,5.76,0,0,0,1.87-4.44A5.83,5.83,0,0,0,205.33,17a7,7,0,0,0-4.89-1.53H199.3Z"/><path class="cls-1" d="M219.75,29.87V13.13h3.51a12.92,12.92,0,0,1,4,.5,7.44,7.44,0,0,1,2.85,1.66,8,8,0,0,1,2.59,6.21,8,8,0,0,1-2.7,6.25,8.07,8.07,0,0,1-2.84,1.66,13.36,13.36,0,0,1-3.94.46Zm2.53-2.37h1.14a9.46,9.46,0,0,0,2.83-.36,5.9,5.9,0,0,0,2-1.2,5.73,5.73,0,0,0,1.87-4.44A5.82,5.82,0,0,0,228.31,17a7,7,0,0,0-4.89-1.53h-1.14Z"/><polygon class="cls-1" points="245.11 15.5 238.4 15.5 238.4 19.53 244.92 19.53 244.92 21.9 238.4 21.9 238.4 27.5 245.11 27.5 245.11 29.87 235.88 29.87 235.88 13.13 245.11 13.13 245.11 15.5"/><path class="cls-1" d="M255.28,29.87V13.13h2.52a11.24,11.24,0,0,1,2.68.26,4,4,0,0,1,1.7.88,4.61,4.61,0,0,1,1.12,1.59,4.89,4.89,0,0,1,.42,1.95,4,4,0,0,1-1.38,3.05,4,4,0,0,1,2.1,1.59,4.44,4.44,0,0,1,.78,2.63,4.48,4.48,0,0,1-1.38,3.32A4.72,4.72,0,0,1,262,29.56a10.92,10.92,0,0,1-2.85.31Zm2.53-9.55h.79a3,3,0,0,0,2.07-.62,2.46,2.46,0,0,0,.65-1.84,2.31,2.31,0,0,0-.67-1.8,2.8,2.8,0,0,0-1.95-.61h-.89Zm0,7.18h1.56a3.89,3.89,0,0,0,2.52-.68,2.32,2.32,0,0,0,.84-1.84,2.36,2.36,0,0,0-.81-1.82,4.24,4.24,0,0,0-2.83-.73h-1.28Z"/><path class="cls-1" d="M270.94,13.13V23.21a5.58,5.58,0,0,0,.7,3.16,3.77,3.77,0,0,0,5.93,0,5.4,5.4,0,0,0,.71-3.16V13.13h2.53V23.91a6,6,0,0,1-1.65,4.36,6.4,6.4,0,0,1-9.1,0,6,6,0,0,1-1.65-4.36V13.13Zm7.5-4.5-4.42,3-1.21-1,3.49-3.49Z"/><path class="cls-1" d="M294.28,15.62l-2,1.22a3.4,3.4,0,0,0-1.09-1.3,2.49,2.49,0,0,0-1.4-.35,2.6,2.6,0,0,0-1.75.6,1.85,1.85,0,0,0-.69,1.47c0,.82.61,1.47,1.82,2l1.67.69a7.14,7.14,0,0,1,3,2,4.52,4.52,0,0,1,1,2.91,5.15,5.15,0,0,1-1.54,3.82,5.3,5.3,0,0,1-3.85,1.51,5.14,5.14,0,0,1-3.6-1.29A6,6,0,0,1,284,25.25l2.56-.56a4.43,4.43,0,0,0,.61,2,2.89,2.89,0,0,0,4.24.29,2.75,2.75,0,0,0,.78-2,2.81,2.81,0,0,0-.14-.89,2.33,2.33,0,0,0-.42-.75,3.38,3.38,0,0,0-.74-.64,7.33,7.33,0,0,0-1.09-.57l-1.61-.67q-3.44-1.45-3.44-4.25a4,4,0,0,1,1.44-3.16,5.23,5.23,0,0,1,3.59-1.28,5,5,0,0,1,4.52,2.82"/><path class="cls-1" d="M314.8,30.17h-3.18l-1.31-1.34a8.51,8.51,0,0,1-4.67,1.34,8.73,8.73,0,0,1-5.9-2.25,8.07,8.07,0,0,1-2.81-6.34,8.33,8.33,0,0,1,2.65-6.31A8.73,8.73,0,0,1,311.39,15a8.41,8.41,0,0,1,3,6.73,8.15,8.15,0,0,1-2.4,5.78Zm-6.95-6.92,2.42,2.41a5.69,5.69,0,0,0,1.61-4.13A6.21,6.21,0,0,0,310.09,17a6,6,0,0,0-4.45-1.82A5.86,5.86,0,0,0,301.22,17a6.37,6.37,0,0,0-1.74,4.59,5.86,5.86,0,0,0,1.8,4.43,6,6,0,0,0,4.28,1.78,5.89,5.89,0,0,0,3-.75l-3.94-3.81Z"/><path class="cls-1" d="M320.13,13.13V23.21a5.57,5.57,0,0,0,.71,3.16,3.77,3.77,0,0,0,5.93,0,5.47,5.47,0,0,0,.7-3.16V13.13H330V23.91a6,6,0,0,1-1.65,4.36,6.4,6.4,0,0,1-9.1,0,6,6,0,0,1-1.64-4.36V13.13Z"/><polygon class="cls-1" points="343.25 15.5 336.54 15.5 336.54 19.53 343.05 19.53 343.05 21.9 336.54 21.9 336.54 27.5 343.25 27.5 343.25 29.87 334.01 29.87 334.01 13.13 343.25 13.13 343.25 15.5"/><path class="cls-1" d="M346.57,29.87V13.13h3.51a12.89,12.89,0,0,1,4,.5,7.37,7.37,0,0,1,2.85,1.66,8,8,0,0,1,2.59,6.21,8,8,0,0,1-2.7,6.25A8.07,8.07,0,0,1,354,29.41a13.36,13.36,0,0,1-3.94.46Zm2.52-2.37h1.14a9.41,9.41,0,0,0,2.83-.36,6,6,0,0,0,2-1.2A5.75,5.75,0,0,0,357,21.5,5.82,5.82,0,0,0,355.12,17a7,7,0,0,0-4.89-1.53h-1.14Z"/><path class="cls-1" d="M371.7,25.8h-7.17l-1.86,4.07h-2.73l8.29-17.79,8,17.79h-2.77Zm-1-2.37-2.49-5.69-2.6,5.69Z"/><path class="cls-1" d="M123.39,47.19v-10h2.09a7.58,7.58,0,0,1,2.38.3,4.46,4.46,0,0,1,1.69,1,4.76,4.76,0,0,1,1.54,3.7,4.7,4.7,0,0,1-1.6,3.71,4.83,4.83,0,0,1-1.69,1,7.83,7.83,0,0,1-2.34.28Zm1.51-1.42h.67a5.76,5.76,0,0,0,1.69-.21,3.54,3.54,0,0,0,1.21-.71,3.42,3.42,0,0,0,1.11-2.64,3.48,3.48,0,0,0-1.1-2.66,4.14,4.14,0,0,0-2.91-.91h-.67Z"/><polygon class="cls-1" points="138.47 38.64 134.48 38.64 134.48 41.04 138.36 41.04 138.36 42.45 134.48 42.45 134.48 45.77 138.47 45.77 138.47 47.19 132.98 47.19 132.98 37.23 138.47 37.23 138.47 38.64"/><path class="cls-1" d="M146,43.14v4h-1.51v-10h1.7a8,8,0,0,1,1.89.17,2.63,2.63,0,0,1,1.14.66,2.86,2.86,0,0,1,.86,2.12,2.72,2.72,0,0,1-.92,2.16,3.58,3.58,0,0,1-2.47.8Zm0-1.39h.55c1.38,0,2.08-.53,2.08-1.59s-.72-1.54-2.14-1.54H146Z"/><polygon class="cls-1" points="157.15 38.64 153.16 38.64 153.16 41.04 157.03 41.04 157.03 42.45 153.16 42.45 153.16 45.77 157.15 45.77 157.15 47.19 151.65 47.19 151.65 37.23 157.15 37.23 157.15 38.64"/><path class="cls-1" d="M162.49,42.94l3.08,4.25h-1.83l-2.85-4.08h-.27v4.08h-1.5v-10h1.76a4.44,4.44,0,0,1,2.85.74,2.75,2.75,0,0,1,1,2.18,2.85,2.85,0,0,1-.61,1.82,2.67,2.67,0,0,1-1.6,1m-1.87-1.14h.48c1.42,0,2.13-.54,2.13-1.63s-.69-1.53-2.07-1.53h-.54Z"/><path class="cls-1" d="M172.7,38.72l-1.22.72a2.17,2.17,0,0,0-.65-.78,1.59,1.59,0,0,0-.83-.2,1.51,1.51,0,0,0-1,.35,1.08,1.08,0,0,0-.42.88c0,.48.37.87,1.09,1.17l1,.41a4.13,4.13,0,0,1,1.77,1.19,2.68,2.68,0,0,1,.56,1.73,3,3,0,0,1-.91,2.27,3.11,3.11,0,0,1-2.29.91,3.07,3.07,0,0,1-2.14-.77,3.51,3.51,0,0,1-1-2.16l1.52-.34a2.54,2.54,0,0,0,.37,1.22,1.55,1.55,0,0,0,1.35.64,1.59,1.59,0,0,0,1.17-.47,1.61,1.61,0,0,0,.46-1.19,1.85,1.85,0,0,0-.08-.54,1.61,1.61,0,0,0-.25-.44,2.12,2.12,0,0,0-.44-.38,4.34,4.34,0,0,0-.65-.34l-1-.4a2.76,2.76,0,0,1-2-2.52,2.37,2.37,0,0,1,.86-1.88A3.07,3.07,0,0,1,170,37a3,3,0,0,1,2.69,1.68"/><path class="cls-1" d="M174.27,42.16a4.87,4.87,0,0,1,1.54-3.61,5.08,5.08,0,0,1,3.69-1.5,5.21,5.21,0,0,1,5.18,5.17,4.86,4.86,0,0,1-1.54,3.64A5.24,5.24,0,0,1,176,46a4.87,4.87,0,0,1-1.69-3.87m1.52,0a3.64,3.64,0,0,0,1.1,2.72,3.69,3.69,0,0,0,5.2,0,3.69,3.69,0,0,0,1.07-2.67,3.65,3.65,0,0,0-1.06-2.67,3.53,3.53,0,0,0-2.62-1.08,3.65,3.65,0,0,0-3.69,3.72"/><polygon class="cls-1" points="186.57 47.19 186.57 36.55 193.83 44.15 193.83 37.23 195.33 37.23 195.33 47.79 188.07 40.22 188.07 47.19 186.57 47.19"/><path class="cls-1" d="M203.64,44.77h-4.26l-1.11,2.42h-1.62l4.93-10.58,4.75,10.58h-1.65ZM203,43.36,201.55,40,200,43.36Z"/><path class="cls-1" d="M213.2,38.72l-1.22.72a2.07,2.07,0,0,0-.65-.78,1.57,1.57,0,0,0-.83-.2,1.52,1.52,0,0,0-1,.35,1.1,1.1,0,0,0-.41.88q0,.72,1.08,1.17l1,.41a4.23,4.23,0,0,1,1.78,1.19,2.74,2.74,0,0,1,.56,1.73,3,3,0,0,1-.92,2.27,3.35,3.35,0,0,1-4.43.14,3.5,3.5,0,0,1-1-2.16l1.52-.34a2.67,2.67,0,0,0,.36,1.22,1.56,1.56,0,0,0,1.35.64,1.59,1.59,0,0,0,1.17-.47,1.61,1.61,0,0,0,.46-1.19,1.57,1.57,0,0,0-.08-.54,1.39,1.39,0,0,0-.25-.44,2.12,2.12,0,0,0-.44-.38,4.34,4.34,0,0,0-.65-.34l-1-.4a2.76,2.76,0,0,1-2-2.52,2.41,2.41,0,0,1,.86-1.88,3.07,3.07,0,0,1,2.13-.76,3,3,0,0,1,2.69,1.68"/><path class="cls-1" d="M219.34,47.19v-10h2.09a7.58,7.58,0,0,1,2.38.3,4.46,4.46,0,0,1,1.69,1,4.76,4.76,0,0,1,1.54,3.7,4.7,4.7,0,0,1-1.6,3.71,4.83,4.83,0,0,1-1.69,1,7.83,7.83,0,0,1-2.34.28Zm1.51-1.42h.67a5.76,5.76,0,0,0,1.69-.21,3.54,3.54,0,0,0,1.21-.71,3.42,3.42,0,0,0,1.11-2.64,3.48,3.48,0,0,0-1.1-2.66,4.14,4.14,0,0,0-2.91-.91h-.67Z"/><path class="cls-1" d="M234.29,44.77H230l-1.11,2.42H227.3l4.93-10.58L237,47.19h-1.65Zm-.61-1.41L232.2,40l-1.55,3.39Z"/><path class="cls-1" d="M238.22,47.19v-10h2.09a7.51,7.51,0,0,1,2.37.3,4.42,4.42,0,0,1,1.7,1,4.76,4.76,0,0,1,1.54,3.7,4.7,4.7,0,0,1-1.6,3.71,4.83,4.83,0,0,1-1.69,1,7.83,7.83,0,0,1-2.34.28Zm1.5-1.42h.68a5.64,5.64,0,0,0,1.68-.21,3.49,3.49,0,0,0,1.22-.71,3.75,3.75,0,0,0,0-5.3,4.14,4.14,0,0,0-2.91-.91h-.68Z"/><path class="cls-1" d="M253.17,44.77h-4.26l-1.11,2.42h-1.62l4.92-10.58,4.76,10.58h-1.65Zm-.62-1.41L251.08,40l-1.55,3.39Z"/><path class="cls-1" d="M262.73,38.72l-1.22.72a2.07,2.07,0,0,0-.65-.78,1.59,1.59,0,0,0-.83-.2,1.51,1.51,0,0,0-1,.35,1.08,1.08,0,0,0-.41.88q0,.72,1.08,1.17l1,.41a4.23,4.23,0,0,1,1.78,1.19,2.74,2.74,0,0,1,.56,1.73,3,3,0,0,1-.92,2.27,3.35,3.35,0,0,1-4.43.14,3.56,3.56,0,0,1-1-2.16l1.53-.34a2.45,2.45,0,0,0,.36,1.22,1.56,1.56,0,0,0,1.35.64,1.59,1.59,0,0,0,1.17-.47,1.61,1.61,0,0,0,.46-1.19,1.85,1.85,0,0,0-.08-.54,1.39,1.39,0,0,0-.25-.44,2.12,2.12,0,0,0-.44-.38,4.34,4.34,0,0,0-.65-.34l-1-.4a2.76,2.76,0,0,1-2-2.52,2.41,2.41,0,0,1,.86-1.88A3.07,3.07,0,0,1,260,37a3,3,0,0,1,2.69,1.68"/><path class="cls-1" d="M270.37,43.14v4h-1.5v-10h1.7a8.13,8.13,0,0,1,1.9.17,2.66,2.66,0,0,1,1.13.66,2.86,2.86,0,0,1,.86,2.12,2.72,2.72,0,0,1-.92,2.16,3.58,3.58,0,0,1-2.47.8Zm0-1.39h.57q2.07,0,2.07-1.59c0-1-.72-1.54-2.14-1.54h-.5Z"/><path class="cls-1" d="M275.51,42.16a4.87,4.87,0,0,1,1.54-3.61,5.08,5.08,0,0,1,3.69-1.5,5.19,5.19,0,0,1,5.17,5.17,4.89,4.89,0,0,1-1.53,3.64,5.24,5.24,0,0,1-7.18.17,4.87,4.87,0,0,1-1.69-3.87m1.51,0a3.61,3.61,0,0,0,1.11,2.72,3.68,3.68,0,0,0,5.19,0,3.85,3.85,0,0,0,0-5.34,3.49,3.49,0,0,0-2.61-1.08,3.55,3.55,0,0,0-2.63,1.08A3.59,3.59,0,0,0,277,42.18"/><path class="cls-1" d="M291.17,42.94l3.09,4.25h-1.84l-2.84-4.08h-.28v4.08h-1.5v-10h1.76a4.41,4.41,0,0,1,2.85.74,2.72,2.72,0,0,1,1,2.18,2.8,2.8,0,0,1-.61,1.82,2.64,2.64,0,0,1-1.6,1M289.3,41.8h.48c1.43,0,2.14-.54,2.14-1.63s-.7-1.53-2.08-1.53h-.54Z"/><path class="cls-1" d="M299.83,47.19v-10h2.09a7.51,7.51,0,0,1,2.37.3,4.38,4.38,0,0,1,1.69,1,4.76,4.76,0,0,1,1.54,3.7,4.7,4.7,0,0,1-1.6,3.71,4.83,4.83,0,0,1-1.69,1,7.83,7.83,0,0,1-2.34.28Zm1.5-1.42H302a5.73,5.73,0,0,0,1.68-.21,3.65,3.65,0,0,0,1.22-6,4.1,4.1,0,0,0-2.9-.91h-.68Z"/><polygon class="cls-1" points="314.91 38.64 310.92 38.64 310.92 41.04 314.79 41.04 314.79 42.45 310.92 42.45 310.92 45.77 314.91 45.77 314.91 47.19 309.42 47.19 309.42 37.23 314.91 37.23 314.91 38.64"/><path class="cls-1" d="M322.51,38.72l-1.22.72a2.07,2.07,0,0,0-.65-.78,1.59,1.59,0,0,0-.83-.2,1.51,1.51,0,0,0-1,.35,1.08,1.08,0,0,0-.41.88q0,.72,1.08,1.17l1,.41a4.23,4.23,0,0,1,1.78,1.19,2.74,2.74,0,0,1,.56,1.73,3,3,0,0,1-.92,2.27,3.35,3.35,0,0,1-4.43.14,3.5,3.5,0,0,1-1-2.16l1.52-.34a2.67,2.67,0,0,0,.36,1.22,1.56,1.56,0,0,0,1.35.64,1.59,1.59,0,0,0,1.17-.47,1.61,1.61,0,0,0,.46-1.19,1.57,1.57,0,0,0-.08-.54,1.39,1.39,0,0,0-.25-.44,2.12,2.12,0,0,0-.44-.38,4.34,4.34,0,0,0-.65-.34l-1-.4a2.76,2.76,0,0,1-2-2.52,2.41,2.41,0,0,1,.86-1.88,3.07,3.07,0,0,1,2.13-.76,3,3,0,0,1,2.69,1.68"/><path class="cls-1" d="M330.32,44.77h-4.26L325,47.19h-1.62l4.93-10.58L333,47.19h-1.64Zm-.61-1.41L328.23,40l-1.54,3.39Z"/><path class="cls-1" d="M335.76,43.14v4h-1.5v-10H336a8.09,8.09,0,0,1,1.89.17,2.54,2.54,0,0,1,1.13.66,2.86,2.86,0,0,1,.86,2.12,2.72,2.72,0,0,1-.92,2.16,3.58,3.58,0,0,1-2.47.8Zm0-1.39h.56q2.07,0,2.07-1.59c0-1-.71-1.54-2.14-1.54h-.49Z"/><path class="cls-1" d="M346.51,44.77h-4.27l-1.1,2.42h-1.62l4.92-10.58,4.75,10.58h-1.64Zm-.62-1.41L344.42,40l-1.55,3.39Z"/><path class="cls-1" d="M353.81,42.94l3.08,4.25h-1.83l-2.85-4.08h-.27v4.08h-1.5v-10h1.76a4.44,4.44,0,0,1,2.85.74,2.75,2.75,0,0,1,1,2.18,2.85,2.85,0,0,1-.61,1.82,2.67,2.67,0,0,1-1.6,1m-1.87-1.14h.48c1.42,0,2.13-.54,2.13-1.63s-.69-1.53-2.07-1.53h-.54Z"/><polygon class="cls-1" points="363.88 38.64 359.89 38.64 359.89 41.04 363.77 41.04 363.77 42.45 359.89 42.45 359.89 45.77 363.88 45.77 363.88 47.19 358.39 47.19 358.39 37.23 363.88 37.23 363.88 38.64"/><path class="cls-1" d="M373.21,37.77v1.78a4.17,4.17,0,0,0-2.69-1.1,3.42,3.42,0,0,0-2.59,1.11,3.73,3.73,0,0,0-1.06,2.68,3.62,3.62,0,0,0,1.06,2.64A3.5,3.5,0,0,0,370.52,46a3.07,3.07,0,0,0,1.35-.26,3.63,3.63,0,0,0,.64-.34c.22-.15.46-.33.7-.53v1.81a5.48,5.48,0,0,1-2.71.73,5,5,0,0,1-3.64-1.49,4.94,4.94,0,0,1-1.5-3.63,5.11,5.11,0,0,1,1.26-3.39,5.17,5.17,0,0,1,6.59-1.09"/><rect class="cls-1" x="375.11" y="37.23" width="1.5" height="9.95"/><path class="cls-1" d="M379,47.19v-10h2.09a7.51,7.51,0,0,1,2.37.3,4.5,4.5,0,0,1,1.7,1,4.8,4.8,0,0,1,1.54,3.7,4.71,4.71,0,0,1-1.61,3.71,4.8,4.8,0,0,1-1.68,1,8,8,0,0,1-2.35.28Zm1.5-1.42h.68a5.69,5.69,0,0,0,1.68-.21,3.58,3.58,0,0,0,1.22-.71,3.75,3.75,0,0,0,0-5.3,4.14,4.14,0,0,0-2.91-.91h-.68Z"/><path class="cls-1" d="M394,44.77h-4.27l-1.1,2.42H387l4.92-10.58,4.75,10.58H395Zm-.62-1.41L391.86,40l-1.55,3.39Z"/><path class="cls-1" d="M403.51,38.72l-1.22.72a2.17,2.17,0,0,0-.65-.78,1.59,1.59,0,0,0-.83-.2,1.51,1.51,0,0,0-1,.35,1.08,1.08,0,0,0-.41.88q0,.72,1.08,1.17l1,.41a4.13,4.13,0,0,1,1.77,1.19,2.68,2.68,0,0,1,.56,1.73,3,3,0,0,1-.91,2.27,3.11,3.11,0,0,1-2.29.91,3.07,3.07,0,0,1-2.14-.77,3.56,3.56,0,0,1-1-2.16l1.52-.34a2.54,2.54,0,0,0,.37,1.22,1.55,1.55,0,0,0,1.35.64,1.59,1.59,0,0,0,1.17-.47,1.61,1.61,0,0,0,.46-1.19,1.57,1.57,0,0,0-.08-.54,1.39,1.39,0,0,0-.25-.44,2.41,2.41,0,0,0-.44-.38,4.34,4.34,0,0,0-.65-.34l-1-.4a2.76,2.76,0,0,1-2-2.52,2.37,2.37,0,0,1,.86-1.88,3.07,3.07,0,0,1,2.13-.76,3,3,0,0,1,2.69,1.68"/><path class="cls-1" d="M60.14,11.07a4.61,4.61,0,1,1-4.61-4.61,4.6,4.6,0,0,1,4.61,4.61"/><path class="cls-1" d="M55.67,28.14a.16.16,0,0,0-.14-.08.13.13,0,0,0-.13.08s-3.56,11.54-3.56,11.54l0,0a7.59,7.59,0,0,0,7.28,0l0,0Z"/><path class="cls-1" d="M49,21.62c-.34-6.24-3.23-11-8.81-13.75C37,6.31,33.65,5.24,30.34,4l-.4-.15c-2.51-1-5.09-1.77-7.27-3.41-.13-.09-.28-.21-.44-.3A1.21,1.21,0,0,0,22,0a.78.78,0,0,0-.22,0c-.71,0-1,.9-1,1.31a6.4,6.4,0,0,0,1,2.35,7.17,7.17,0,0,0,1.55,1.7l.16.13.35.24A14.66,14.66,0,0,0,26.57,7l1.21.44,1.15.42a1.3,1.3,0,0,1,.73.69,1.22,1.22,0,0,1,.08.43.9.9,0,0,1-.08.4c-.51,1.11-2,1.23-2.5,1.28-1.4.14-2.8.26-4.2.33a40.17,40.17,0,0,1-6.3-.12L16,10.79a26.47,26.47,0,0,1-9.3-2.68c-.27-.14-.53-.29-.79-.45-.44-.26-.87-.53-1.3-.81-.71-.46-1.42-.92-2.15-1.36a1.48,1.48,0,0,0-.89-.27,1.24,1.24,0,0,0-1,1.71A10.43,10.43,0,0,0,1.68,9.15,8.12,8.12,0,0,0,2.4,10c.34.36.66.63,1.06,1A20,20,0,0,0,8.1,14.3,59.18,59.18,0,0,0,17.33,18l1.6.52,2.68.88c3,1,6,1.79,8.87,3q.8.33,1.56.72a26.79,26.79,0,0,1,4.64,3,39.75,39.75,0,0,1,6.65,7.1c1.07,1.42,2.06,2.89,3.19,4.5.25-.9.47-1.66.67-2.42A44.57,44.57,0,0,0,49,21.62"/><path class="cls-1" d="M23.28,22.12c-2.26-.69-4.54-1.33-6.8-2-1.76-.53-3.51-1.08-5.24-1.7A28.8,28.8,0,0,1,1.4,11.83l-.17-.15A.8.8,0,0,0,1,11.55a.72.72,0,0,0-.29-.06A.76.76,0,0,0,0,12a.85.85,0,0,0,0,.23,1.56,1.56,0,0,0,0,.25,13,13,0,0,0,.39,1.25,11.77,11.77,0,0,0,5.74,6.33,17.73,17.73,0,0,0,4,1.59,29.4,29.4,0,0,0,4.49.69,77.78,77.78,0,0,0,10.25.2c-.71-.19-1.18-.3-1.64-.44"/><path class="cls-1" d="M12.54,23.76c-3.89-.71-7.52-2-10.49-4.89a1.4,1.4,0,0,0-.18-.13.69.69,0,0,0-.19-.1.6.6,0,0,0-.75.43s0,.05,0,.08a.92.92,0,0,0,0,.28,2,2,0,0,0,.19.46,8.73,8.73,0,0,0,.65,1.05,8.93,8.93,0,0,0,.79.94,8.76,8.76,0,0,0,.9.82,9.11,9.11,0,0,0,1,.69,8.75,8.75,0,0,0,1.11.54,8.11,8.11,0,0,0,1.18.38l.3.07.28.07.58.14a11.58,11.58,0,0,0,1.18.18c.4,0,.8.06,1.2.07s.81,0,1.21,0,.83-.07,1.24-.13,1.63-.3,1.82-.34l.57-.14-2.65-.43"/><path class="cls-1" d="M28.55,49.84v9c0,.48,0,1,.05,1.48a4.17,4.17,0,0,0,.33,1.37,2.21,2.21,0,0,0,.87,1,3,3,0,0,0,1.67.39,3,3,0,0,0,1.66-.39,2.38,2.38,0,0,0,.86-1,3.73,3.73,0,0,0,.34-1.37c0-.51.06-1,.06-1.48v-9h4.28v9.6q0,3.87-1.77,5.65c-1.17,1.18-3,1.78-5.43,1.78s-4.26-.6-5.45-1.78S24.24,62,24.24,59.44v-9.6Z"/><path class="cls-1" d="M42.14,49.86s3.55-.08,8,.08c1.77.06,4.2,1.25,3.9,4a3.38,3.38,0,0,1-2.7,3.5A5,5,0,0,1,53,58a3.45,3.45,0,0,1,1.06.9,3.52,3.52,0,0,1,.58,1.2,5.42,5.42,0,0,1,.17,1.42,5.06,5.06,0,0,1-.4,2.09,4.19,4.19,0,0,1-1.15,1.54,4.76,4.76,0,0,1-1.79.93,8.25,8.25,0,0,1-2.37.31H42.14Zm4.31,6.36,2.22,0c.83,0,1.29-1.1,1.29-1.59,0-1.08-.55-1.54-1.29-1.58C47.78,53,46.45,53,46.45,53Zm0,6.89,2.71,0c1,0,1.58-1.21,1.58-1.75a1.54,1.54,0,0,0-1.58-1.75c-1.08,0-2.71-.06-2.71-.06Z"/><path class="cls-1" d="M61.65,66.4H57.34V49.84H64.2a5.84,5.84,0,0,1,4.27,1.45A5.46,5.46,0,0,1,70,55.38a5.45,5.45,0,0,1-1.48,4.08,5.84,5.84,0,0,1-4.27,1.45H61.65Zm0-9h1.43c1.58,0,2.37-.69,2.37-2.06s-.79-2.07-2.37-2.07H61.65Z"/><path class="cls-1" d="M72.24,49.84h6.37a7.59,7.59,0,0,1,3.17.68,8.81,8.81,0,0,1,2.59,1.81A8.63,8.63,0,0,1,86.12,55a8.1,8.1,0,0,1,.64,3.15,8,8,0,0,1-.63,3.13,8.45,8.45,0,0,1-4.33,4.47,7.46,7.46,0,0,1-3.19.68H72.24Zm4.3,12.92h1a5.44,5.44,0,0,0,2-.35,4.28,4.28,0,0,0,1.48-1A4.17,4.17,0,0,0,81.93,60a5.43,5.43,0,0,0,0-3.7A4.29,4.29,0,0,0,81,54.81a4.23,4.23,0,0,0-1.48-1,5.41,5.41,0,0,0-2-.35h-1Z"/><polygon class="cls-1" points="94.56 20.11 94.56 20.11 94.56 20.11 94.56 20.11"/><path class="cls-1" d="M62,21.62c.34-6.24,3.23-11,8.81-13.75C74,6.31,77.39,5.24,80.7,4l.41-.15c2.5-1,5.08-1.77,7.26-3.41.13-.09.28-.21.44-.3A1.21,1.21,0,0,1,89,0a.78.78,0,0,1,.22,0c.71,0,1,.9,1,1.31a6.4,6.4,0,0,1-1,2.35,7.17,7.17,0,0,1-1.55,1.7l-.17.13-.34.24A14.66,14.66,0,0,1,84.47,7l-1.21.44-1.15.42a1.3,1.3,0,0,0-.73.69A1.22,1.22,0,0,0,81.3,9a1.05,1.05,0,0,0,.07.4c.52,1.11,2,1.23,2.51,1.28,1.4.14,2.8.26,4.21.33a40.09,40.09,0,0,0,6.29-.12l.68-.08a26.47,26.47,0,0,0,9.3-2.68c.27-.14.53-.29.79-.45.44-.26.87-.53,1.3-.81.71-.46,1.42-.92,2.15-1.36a1.48,1.48,0,0,1,.89-.27,1.24,1.24,0,0,1,1,1.71,10.87,10.87,0,0,1-1.15,2.22,11.35,11.35,0,0,1-.73.87c-.34.36-.66.63-1.06,1a20,20,0,0,1-4.64,3.26A59.18,59.18,0,0,1,93.71,18l-1.6.52-2.68.88c-3,1-6,1.79-8.87,3q-.8.33-1.56.72a26.79,26.79,0,0,0-4.64,3,39.75,39.75,0,0,0-6.65,7.1c-1.06,1.42-2,2.89-3.19,4.5-.25-.9-.47-1.66-.67-2.42A44.57,44.57,0,0,1,62,21.62"/><path class="cls-1" d="M87.76,22.12c2.26-.69,4.54-1.33,6.8-2h0c1.76-.53,3.51-1.08,5.24-1.7a28.8,28.8,0,0,0,9.84-6.58l.17-.15a.64.64,0,0,1,.19-.13.72.72,0,0,1,.29-.06A.74.74,0,0,1,111,12a.59.59,0,0,1,0,.23,1.56,1.56,0,0,1,0,.25,13,13,0,0,1-.39,1.25,11.77,11.77,0,0,1-5.74,6.33,17.63,17.63,0,0,1-4,1.59,29.06,29.06,0,0,1-4.48.69,77.78,77.78,0,0,1-10.25.2c.71-.19,1.18-.3,1.64-.44"/><path class="cls-1" d="M98.5,23.76c3.89-.71,7.52-2,10.49-4.89a1.4,1.4,0,0,1,.18-.13.69.69,0,0,1,.19-.1.59.59,0,0,1,.75.43s0,.05,0,.08a1.35,1.35,0,0,1,0,.28,2.67,2.67,0,0,1-.2.46,8.73,8.73,0,0,1-.65,1.05,8.93,8.93,0,0,1-.79.94,8.76,8.76,0,0,1-.9.82,10,10,0,0,1-1,.69,9.6,9.6,0,0,1-1.12.54,8.11,8.11,0,0,1-1.18.38l-.3.07-.28.07-.58.14a11.58,11.58,0,0,1-1.18.18c-.39,0-.79.06-1.19.07s-.82,0-1.22,0-.83-.07-1.24-.13-1.63-.3-1.82-.34l-.57-.14,2.65-.43"/></g></g></svg>