<svg xmlns="http://www.w3.org/2000/svg" viewBox="0 0 44.4 44.4"><defs><style>.cls-1{fill:#fff;stroke:#a5a5a5;stroke-miterlimit:10;}.cls-2{fill:#a5a5a5;}</style></defs><g id="Capa_2" data-name="Capa 2"><g id="Capa_1-2" data-name="Capa 1"><circle class="cls-1" cx="22.2" cy="22.2" r="21.7"/><path class="cls-2" d="M24.3,24.25a8.54,8.54,0,1,1,1.42-1.43,1.49,1.49,0,0,0,1.51.81,2,2,0,0,1,1.26.56c2.07,2,4.1,4.06,6.13,6.11a2,2,0,0,1-2.86,2.86c-2.07-2-4.13-4.1-6.16-6.18a1.8,1.8,0,0,1-.51-1.21A1.54,1.54,0,0,0,24.3,24.25ZM19,10.93a6.62,6.62,0,1,0,6.63,6.66A6.62,6.62,0,0,0,19,10.93Z"/></g></g></svg>