<svg xmlns="http://www.w3.org/2000/svg" viewBox="0 0 68.09 91"><defs><style>.cls-1{fill:#fed2b2;}.cls-2{fill:#6e82b6;}.cls-3{fill:#fff;}.cls-4{fill:#fbb88b;}.cls-5{fill:#fbb98b;}.cls-6{fill:#d2d2d2;}.cls-7{fill:#fbb88a;}</style></defs><g id="Capa_2" data-name="Capa 2"><g id="Capa_1-2" data-name="Capa 1"><path class="cls-1" d="M30,64.72c.31-.26.17-.63.17-.95q0-11.34,0-22.68A1.59,1.59,0,0,0,30,40a4.1,4.1,0,0,1,5.12-4.59c.45.13.88.29,1,.82a8.16,8.16,0,0,1,.07,1.56v22.9a8.24,8.24,0,0,0,0,1.11c.05.43.33.55.71.56a.57.57,0,0,0,.67-.59c0-.31,0-.62,0-.92q0-4,0-7.95a1.71,1.71,0,0,1,.29-1.31c.69-1.16,1.4-2.27,2.88-2.6a3.86,3.86,0,0,1,3,.56A5.49,5.49,0,0,1,44,50.85q0,4.92,0,9.86c0,.27,0,.55,0,.83s0,.82.61.84.62-.39.64-.81c0-.25,0-.49,0-.74,0-1.75,0-3.5,0-5.25a1.5,1.5,0,0,1,.29-1.21c.51-.57.62-1.41,1.28-1.89a4,4,0,0,1,4.64-.32,23.79,23.79,0,0,1,.09,3.58c0,1.75,0,3.5,0,5.25,0,.25,0,.49,0,.74s.16.65.6.65.61-.24.63-.63c0-.67,0-1.35,0-2,0-1.26,0-2.52,0-3.78,0-.42-.06-.87.3-1.21.39.77,0,1.62.27,2.6a3.9,3.9,0,0,1,3.23-2.54,3.59,3.59,0,0,1,2.6.69c-.07.7-.08,1.41-.08,2.12V80a16,16,0,0,1-.11,2.3,15.62,15.62,0,0,1-12.17,8.53A16,16,0,0,1,30.5,82.21C27.08,75.45,23,69.06,19.32,62.46a5,5,0,0,1-.82-4.11c.48-1.58,2.68-3.24,4.65-2.69a.85.85,0,0,0,.08,1c2.91,5,5.79,10,8.7,15,.19.34.34.76.88.64.72-.16.94-.63.56-1.29-1-1.76-2-3.51-3-5.28C30.15,65.42,29.82,65.15,30,64.72Z"/><path class="cls-2" d="M35.91,36.06c-2.48-1.45-5.36.11-5.72,3.1,0,.29.1.62-.2.86a8.52,8.52,0,0,1-2.24-2.28,2.31,2.31,0,0,1-.89-2.06,8.9,8.9,0,0,1,0-3.67,1.7,1.7,0,0,1,.58-1.63,9.58,9.58,0,0,1,2.75-2.85A2,2,0,0,1,32,26.65a10,10,0,0,1,4.07,0,2,2,0,0,1,1.86.88,9.25,9.25,0,0,1,2.73,2.84,1.87,1.87,0,0,1,.6,1.64,9.07,9.07,0,0,1,0,3.67,2.34,2.34,0,0,1-.89,2.06,7.2,7.2,0,0,1-2.4,2.32.41.41,0,0,1-.19-.29A5,5,0,0,0,35.91,36.06Z"/><path class="cls-3" d="M8.68,24.57a7.33,7.33,0,0,1-2.16,1.7A4.76,4.76,0,0,1,.81,24.53a4.8,4.8,0,0,1,.61-6,4.78,4.78,0,0,1,6-.44,4.83,4.83,0,0,1,2,4.68A2,2,0,0,1,8.68,24.57Z"/><path class="cls-3" d="M58.68,22.76a4.82,4.82,0,0,1,3.63-5.45,4.71,4.71,0,0,1,3.81,8.41,4.63,4.63,0,0,1-5.79-.24c-.32-.29-.62-.61-.92-.91A2,2,0,0,1,58.68,22.76Z"/><path class="cls-3" d="M22.76,9.4a4.81,4.81,0,0,1-5.47-3.72A4.71,4.71,0,0,1,25.78,2a4.62,4.62,0,0,1-.3,5.72c-.29.32-.6.62-.9.92A2,2,0,0,1,22.76,9.4Z"/><path class="cls-3" d="M9.41,45.32c.12,2.94-1.11,4.77-3.64,5.44A4.7,4.7,0,0,1,2,42.35a4.63,4.63,0,0,1,5.72.19c.35.3.66.64,1,1A2,2,0,0,1,9.41,45.32Z"/><path class="cls-3" d="M59.4,43.5a8.18,8.18,0,0,1,2.08-1.66,4.67,4.67,0,1,1-2.8,3.48A2,2,0,0,1,59.4,43.5Z"/><path class="cls-3" d="M43.51,8.67a7.5,7.5,0,0,1-1.7-2.16A4.72,4.72,0,1,1,50.26,7a4.82,4.82,0,0,1-4.93,2.37A2,2,0,0,1,43.51,8.67Z"/><path class="cls-4" d="M35.91,36.06a3.6,3.6,0,0,1,2,3.17,7.73,7.73,0,0,1,0,.83c0,3.85,0,7.7,0,11.55,0,3.39,0,6.77,0,10.16,0,.8-.26,1-1,1s-1.07,0-1.06-.91C35.91,53.24,35.9,44.65,35.91,36.06Z"/><path class="cls-5" d="M59,82.32c-.3-.27-.18-.63-.18-.95q0-12.45,0-24.89c0-.35-.24-.84.36-1a3.78,3.78,0,0,1,1.65,3.32c0,5.55,0,11.1,0,16.64A13.64,13.64,0,0,1,59,82.32Z"/><path class="cls-4" d="M30,64.72c1.23,2.13,2.45,4.26,3.72,6.36.37.62.21.92-.34,1.22s-1,.58-1.49-.22c-1.82-3.21-3.68-6.39-5.53-9.59-1.13-2-2.28-3.93-3.39-5.91-.15-.27-.85-.82.19-.92a3.77,3.77,0,0,1,2.8,2C27.32,60,28.64,62.38,30,64.72Z"/><path class="cls-6" d="M9.41,45.32c-.24-.61-.48-1.21-.73-1.82l10-4.08,7.41-3.07c.32-.13.73-.2.8-.67.29.69.59,1.37.89,2.06-2.48.82-4.84,1.94-7.25,2.91C17,42.06,13.47,43.54,10,45A5.33,5.33,0,0,0,9.41,45.32Z"/><path class="cls-6" d="M59.4,43.5l-.72,1.82c-2.2-1.1-4.51-1.93-6.76-2.89-3.62-1.52-7.25-3-10.88-4.51a5.12,5.12,0,0,0-.7-.18l.89-2.06c0,.38.35.48.63.59Z"/><path class="cls-6" d="M58.68,22.76c.24.6.48,1.21.73,1.81l-14.47,6L41.27,32l-.6-1.64c2.46-1.17,5-2.14,7.53-3.18L58.3,23A4.13,4.13,0,0,0,58.68,22.76Z"/><path class="cls-6" d="M8.68,24.57c.25-.6.49-1.21.73-1.82,1.52.81,3.14,1.36,4.72,2,4.35,1.83,8.72,3.61,13.07,5.42.08,0,.13.12.2.19-.2.54-.39,1.08-.58,1.63L14.23,26.82C12.38,26.06,10.53,25.32,8.68,24.57Z"/><path class="cls-6" d="M43.51,8.67l1.82.74a43.47,43.47,0,0,0-1.89,4.38c-1.78,4.25-3.53,8.51-5.3,12.77a1.64,1.64,0,0,0-.2,1l-1.86-.88Q39.78,17.67,43.51,8.67Z"/><path class="cls-6" d="M22.76,9.4l1.82-.73q3.72,9,7.43,18l-1.86.88a3,3,0,0,0-.49-1.65c-2.18-5.35-4.4-10.68-6.61-16A3.31,3.31,0,0,0,22.76,9.4Z"/><path class="cls-7" d="M45.52,54.37c0,2.49,0,5,0,7.47,0,.8-.32.88-1,.89s-.91-.16-.91-.87c0-3.84,0-7.68,0-11.53,0-.26-.07-.56.19-.76a3.82,3.82,0,0,1,1.67,3.62C45.5,53.58,45.52,54,45.52,54.37Z"/><path class="cls-4" d="M53.11,54.74c0,2.37,0,4.73,0,7.09,0,.8-.31.9-1,.9s-.92-.14-.91-.87c0-3,0-6,0-8.93,0-.27-.08-.56.19-.77A3.48,3.48,0,0,1,53.11,54.74Z"/></g></g></svg>